<svg width="153" height="150" viewBox="0 0 153 150" fill="none" xmlns="http://www.w3.org/2000/svg">
<path d="M80.4756 103.562C79.2243 103.369 77.9594 103.276 76.6932 103.285C74.2836 103.084 71.8651 103.55 69.7023 104.631C68.2695 105.62 67.188 107.039 66.6137 108.682C66.0379 110.095 65.886 111.644 66.1766 113.142C66.4672 114.639 67.1877 116.019 68.2501 117.114C70.4579 119.307 73.3801 120.173 76.0381 121.534C76.1902 121.595 76.3533 121.623 76.5169 121.617C76.6806 121.611 76.8411 121.57 76.9881 121.498C79.5098 120.686 81.8807 119.465 84.0059 117.883C85.2759 116.887 86.1962 115.512 86.6339 113.959C87.0716 112.405 87.0039 110.752 86.4408 109.24C86.1059 107.816 85.3634 106.521 84.3039 105.512C83.2445 104.504 81.9142 103.826 80.4756 103.562Z" fill="#2563EB"/>
<path d="M139.606 0H13.2321C9.72586 0.0102363 6.36618 1.40761 3.8869 3.88688C1.40762 6.36616 0.0102415 9.72584 0 13.2321V136.768C0.0102674 140.274 1.40766 143.634 3.88694 146.113C6.36621 148.592 9.72588 149.99 13.2321 150H139.606C143.112 149.99 146.472 148.592 148.951 146.113C151.43 143.634 152.828 140.274 152.838 136.768V13.2321C152.828 9.72584 151.43 6.36616 148.951 3.88688C146.472 1.40761 143.112 0.0102363 139.606 0ZM104.097 31.7392C105.354 29.8744 106.398 27.8846 107.587 25.9826C109.479 22.4305 111.859 19.1602 114.656 16.2663C115.781 15.1213 117.267 14.4008 118.863 14.2269C121.861 14.0021 123.558 15.8833 124.999 18.0106C127.334 21.8965 129.019 26.1371 129.989 30.5655C130.767 33.4259 131.272 36.3537 131.498 39.3095C131.794 42.5843 131.888 45.8742 131.782 49.1606C131.575 52.8417 131.178 56.5096 130.592 60.1496C130.57 60.6135 130.405 61.0592 130.121 61.4264C128.561 59.4767 127.556 57.1922 125.899 55.3748C124.497 53.4201 122.938 51.5835 121.237 49.8832C117.956 46.3553 114.42 43.0734 110.657 40.0641C108.241 38.1085 105.67 36.3444 103.171 34.4906C102.885 34.2781 102.617 34.0403 102.306 33.7862C102.694 32.8694 103.596 32.4837 104.097 31.7392ZM24.2493 25.1374C25.0152 22.9661 25.946 20.8566 27.0338 18.8274C27.8244 17.2634 29.0386 15.9531 30.5378 15.0458C31.4248 14.4601 32.4687 14.1578 33.5314 14.179C34.594 14.2001 35.6252 14.5437 36.4881 15.1642C39.0125 17.0049 41.1302 19.3464 42.7091 22.0423C44.9881 25.3966 46.7434 29.079 49.1943 32.3234C49.4121 32.6116 49.5719 32.9426 49.7812 33.2378C50.3389 34.0245 50.0908 34.6043 49.3085 35.0089C45.6608 37.0981 42.2607 39.5928 39.173 42.4453C34.959 45.9952 31.0956 49.9415 27.6359 54.2299C26.0857 56.1426 24.6587 58.152 23.3636 60.2459C23.2644 60.4826 23.1129 60.6937 22.9203 60.8634C22.7278 61.033 22.4993 61.1568 22.252 61.2254C19.4634 49.2517 20.1564 36.7303 24.2493 25.1374ZM140.136 104.856C137.175 105.334 134.186 105.598 131.265 106.364C125.438 107.888 119.908 110.375 114.902 113.723C110.335 116.759 106.104 120.215 101.877 123.678C99.6187 125.664 97.1776 127.432 94.5865 128.958C91.406 130.781 87.9365 132.045 84.3288 132.696C82.2188 133.215 80.0644 133.532 77.8945 133.642C76.0826 133.696 74.2703 133.55 72.4903 133.208C69.9625 132.57 67.3166 132.603 64.8145 131.781C60.4874 130.308 56.4619 128.065 52.9317 125.162C49.2554 122.222 45.7584 119.061 41.9281 116.313C37.6703 113.225 33.0573 110.659 28.1881 108.671C23.9554 107.056 19.5506 105.936 15.061 105.33C14.0104 105.058 12.9373 104.881 11.8549 104.801C11.2855 104.815 11.0071 104.404 10.8389 103.848C10.4088 101.841 10.7699 99.7454 11.847 97.9983C15.0091 91.379 19.4178 85.4316 24.8318 80.4816C29.0461 76.3573 34.1845 73.2993 39.8193 71.562C41.687 71.1158 43.6032 70.9049 45.5232 70.9343C46.2036 70.9101 46.3197 71.3243 46.292 71.9433C46.1185 73.7713 46.3695 75.6146 47.0255 77.3297C47.6814 79.0447 48.7246 80.5851 50.0736 81.8308C51.4202 83.0915 53.1045 83.9332 54.9211 84.2532C56.7378 84.5731 58.6083 84.3576 60.3045 83.6328C61.4195 83.1336 62.4149 82.4018 63.2239 81.4864C64.0329 80.571 64.6368 79.4931 64.995 78.3252C66.1278 75.6165 64.7769 73.3802 63.2257 71.3244C61.1215 68.7975 58.2683 67.005 55.0785 66.2061C52.0907 65.3302 49.0151 64.7879 45.9078 64.5891C45.4388 64.5469 44.9748 64.4606 44.522 64.3314C44.1097 64.2481 43.7286 64.0522 43.4209 63.7655C43.1132 63.4788 42.8909 63.1124 42.7787 62.7071C42.6665 62.3017 42.6687 61.8732 42.7852 61.4691C42.9017 61.0649 43.1278 60.7009 43.4386 60.4175C44.4922 59.422 45.7206 58.6296 47.0619 58.08C50.1631 56.3086 53.702 55.4501 57.2702 55.6035C59.507 55.8239 61.6571 56.5829 63.5365 57.8158C66.7827 60.0959 69.3348 63.2298 70.9101 66.8705C71.4054 67.7315 72.0936 68.4658 72.9207 69.0159C73.7477 69.5659 74.6911 69.9166 75.6766 70.0404C76.6621 70.1642 77.6629 70.0578 78.6003 69.7295C79.5377 69.4012 80.3862 68.8599 81.0791 68.1483C81.8991 67.2311 82.5792 66.1979 83.0975 65.0822C84.0933 62.94 85.4999 61.0141 87.2375 59.4137C88.6573 58.021 90.3659 56.9573 92.2423 56.2978C94.1188 55.6384 96.1172 55.3993 98.0962 55.5976C102.154 56.04 106.012 57.5899 109.248 60.0777C109.902 60.576 110.664 61.1876 110.402 62.2265C109.995 63.8392 109.585 64.2306 107.988 64.4014C104.454 64.6607 100.957 65.2963 97.5578 66.2977C94.8016 67.108 92.291 68.5928 90.2531 70.6177C89.302 71.6186 88.5447 72.7872 88.0196 74.0643C87.5837 75.2823 87.4952 76.5977 87.7641 77.8632C88.0329 79.1287 88.6485 80.2944 89.5421 81.23C92.8199 85.6811 101.739 85.8109 105.169 78.7174C106.15 76.6863 106.632 74.45 106.573 72.195C106.548 70.8484 106.631 70.7549 108.004 70.835C111.884 71.1112 115.651 72.271 119.014 74.2256C123.755 76.9054 127.979 80.4107 131.486 84.5764C134.82 88.3065 137.647 92.4609 139.892 96.9317C140.982 98.7806 141.608 100.866 141.716 103.01C141.678 104.412 141.507 104.635 140.136 104.856Z" fill="#2563EB"/>
</svg>
