<svg width="4407" height="4407" viewBox="0 0 4407 4407" fill="none" xmlns="http://www.w3.org/2000/svg">
<path d="M2205.38 723.232C2204.2 723.226 2203.03 723.221 2201.85 723.218L2190.48 723.202C2157.54 723.154 2125.27 724.854 2093.4 727.955C2072.98 727.896 2052.93 728.882 2032.51 732.24L2021.54 734.219C1964.63 744.228 1964.63 744.229 1828.26 779.549L1815.94 782.75C1815.94 776.589 1815.94 774.95 1813.4 771.286C1808.08 761.345 1791.64 742.48 1740.73 684.094L1740.72 684.082L1727.93 669.424C1702.47 639.786 1675.67 612.217 1647.11 585.552L1622.72 562.886C1614.89 555.61 1607.06 548.327 1599.29 540.986C1565.15 508.642 1529.73 478.383 1492.92 449.138L1484.87 442.772C1457.94 421.411 1430.66 400.655 1402.37 381.125C1393.54 375.105 1384.72 369.073 1375.91 363.024C1317.78 320.118 1254.05 286.513 1189.22 254.978L1181.05 251.01C1177.29 249.174 1173.52 247.34 1169.76 245.507L1165.06 243.221L1150.01 236.008C1134.43 228.541 1120.62 222.975 1103.52 220.317C1100.82 225.725 1098 231.075 1095.03 236.343C1018.78 370.425 961.578 514.277 922.774 663.577L919.128 677.819C871.435 861.021 859.559 1057.08 880.067 1245.17L881.412 1257.04C887.357 1310.74 894.819 1364.17 902.889 1417.59C904.991 1431.08 907.062 1444.57 908.948 1458.09L910.747 1471.1C915.926 1502.46 917.815 1523.29 900.2 1550.61C895.515 1557.34 890.965 1564.17 886.523 1571.07L879.349 1582.34C729.918 1813.79 614.693 2095.79 621.589 2373.51C630.961 2373.51 635.093 2373.51 639.123 2372.87C642.302 2372.36 645.417 2371.46 650.989 2369.84L664.544 2365.12L678.229 2360.4L688.64 2356.72C687.932 2389.7 690.19 2422.36 692.813 2455.21L693.616 2465.06C698.72 2527.89 706.969 2589.32 719.665 2651.12L722.166 2663.12C753.082 2816.74 810.955 2966.97 888.576 3102.8L893.984 3112.23C934.596 3183.69 979.736 3253.79 1030.82 3318.19C1035.95 3324.6 1041.06 3331.01 1046.06 3337.52C1069.26 3367.96 1093.22 3397.07 1119.41 3424.99C1128.25 3434.39 1137.04 3443.8 1145.56 3453.5C1167.58 3479.22 1190.76 3503.28 1216.41 3525.4C1225.2 3532.96 1233.67 3540.59 1241.86 3548.81C1310.59 3619.56 1391.17 3682.74 1472.41 3738.38L1480.94 3744.18C1482.1 3744.98 1483.24 3745.77 1484.36 3746.56C1484.92 3746.96 1485.48 3747.35 1486.03 3747.74L1486.09 3747.78C1491.09 3751.32 1495.77 3754.63 1500.72 3757.23C1506.92 3761 1512.39 3762.8 1522.59 3762.8L1516.76 3756.53L1508.97 3748.38C1504.45 3743.59 1500.61 3739.82 1496.49 3736.87C1483.24 3723.52 1470.2 3709.96 1457.63 3695.91C1447.69 3684.67 1437.7 3673.49 1427.51 3662.46C1405.62 3638.86 1384.36 3614.97 1364.23 3589.81L1354.96 3578.12C1289.57 3497.99 1233.82 3410.09 1188.75 3317.04L1183.14 3305.3C1161.82 3260.72 1142.98 3215.47 1127.7 3168.44L1124.47 3158.4C1102.1 3089.5 1087.18 3020.81 1075.64 2949.33L1074.18 2940.14H1065.8C1052.29 2957.12 1041.81 2973.96 1033.21 2993.86L1029.66 3002.58C1016.64 3034.15 1009.57 3065.4 1004.66 3099.13L1002.94 3112.23C942.663 3012.61 893.081 2906.78 855.903 2796.4L852.077 2784.84C814.411 2671.29 794.87 2555.08 787.17 2435.95C786.227 2420.48 785.26 2405.06 783.596 2389.64C781.629 2372.87 779.89 2356.35 780.901 2339.46C788.451 2321.65 792.278 2312.63 797.938 2304.96C803.751 2297.09 811.5 2290.65 827.206 2277.59L827.211 2277.58L828.21 2276.78C835.905 2270.63 843.569 2264.49 851.011 2258.03C864.336 2246.15 877.831 2234.59 891.723 2223.38L898.175 2218.21C987.927 2145.83 1110.25 2071.86 1229.24 2071.31L1222.05 2080.29L1212.48 2092.3C1167.46 2148.55 1128.52 2207.61 1095.74 2271.84C1091.19 2280.84 1086.62 2289.82 1081.95 2298.75C1078.75 2304.83 1075.58 2310.91 1072.42 2317.01L1067.9 2325.77L1063.6 2333.89C1053.14 2354.48 1045.33 2374.06 1052.36 2396.89L1058.21 2407.61L1065.33 2420.76C1070.07 2429.16 1074.78 2437.56 1079.38 2446.02C1133.18 2545.08 1199.51 2636.19 1272.69 2721.77C1274.92 2724.34 1277.15 2726.91 1279.38 2729.48L1283.72 2734.48C1302.55 2756.62 1322.15 2777.7 1342.66 2798.29L1353.39 2808.98C1414.51 2869.96 1477.76 2928.95 1545.67 2982.36L1556.11 2990.51C1558.17 2992.15 1560.23 2993.79 1562.28 2995.44L1562.29 2995.44C1581.05 3010.46 1599.82 3025.48 1619.99 3038.59C1625.2 3041.88 1630.61 3045.09 1636.07 3048.35L1636.08 3048.35L1636.1 3048.36L1636.25 3048.45L1636.26 3048.46L1636.3 3048.48C1660.74 3063.03 1686.27 3078.22 1700.43 3102.79C1721.36 3146.33 1750.25 3188.55 1785.6 3221.57L1794.98 3229.75C1833.41 3263.59 1873.75 3288.21 1923.18 3302.43C2005.92 3319.05 2099.02 3289.96 2168.74 3244.97C2175.4 3240.37 2178.52 3238.2 2181.75 3236.21C2184.61 3234.45 2187.55 3232.82 2193.1 3229.75L2193.21 3229.74L2193.32 3229.73L2193.33 3229.73L2193.34 3229.72L2193.35 3229.72L2193.36 3229.72L2193.37 3229.72L2193.38 3229.72L2193.4 3229.72L2193.41 3229.72L2193.43 3229.71L2193.44 3229.71L2193.46 3229.71L2193.47 3229.71L2193.49 3229.71L2193.5 3229.71L2193.53 3229.7L2193.54 3229.7L2193.58 3229.7L2193.59 3229.7L2193.64 3229.69L2193.89 3229.67L2193.9 3229.67L2193.91 3229.67C2199.12 3229.23 2202.62 3228.94 2205.38 3229.04V3176.08C2129.34 3174.63 2061.74 3153.63 2001.98 3101.05C1959.61 3059.65 1929.7 3010 1927.78 2949.59C1928.22 2916.54 1940.72 2886.91 1963.61 2863.08C1987.42 2840.87 2013.84 2830.98 2045.12 2823.93L2056.38 2821.3C2067.02 2818.86 2077.67 2816.52 2088.33 2814.22L2102.36 2811.04C2136.11 2804.58 2170.71 2802.42 2205.38 2803.4V2229.31C2204.66 2229.3 2203.95 2229.29 2203.23 2229.29L2194.67 2229.23C2139.86 2228.64 2088.41 2234.58 2036.52 2253.24L2027.31 2256.78C1960.23 2282.19 1899.18 2320.55 1849.53 2372.79L1841.08 2381.91C1709.36 2518.64 1642.43 2710.82 1600.84 2893.51L1598.02 2906.56H1589.64C1515.72 2842.74 1457.04 2758.85 1410.74 2673.55C1296.93 2457.23 1272.81 2232.46 1344.28 1998.94L1346.58 1991.56L1346.57 1991.56C1339.91 1990 1335.43 1988.95 1330.89 1988.24C1321.54 1986.77 1311.96 1986.72 1282.64 1986.58L1266.17 1986.58C1234.01 1986.27 1203.1 1986.04 1171.66 1993.37L1162.19 1995.76C1016.08 2028.66 883.13 2106.43 772.716 2206.93C756.175 2222.3 739.402 2237.21 722.166 2251.79C717.091 2122.69 782.564 1963.81 840.209 1851.23C844.076 1843.73 847.908 1836.22 851.645 1828.65C885.809 1758.72 923.21 1690.73 962.868 1623.78C1005.86 1552.49 1016.83 1508.19 1001.53 1427.58C966.028 1241.54 953.037 1046.94 980.053 858.725L981.988 845.709C1007.49 667.124 1065.5 503.099 1145.43 342.038C1154.75 341.367 1158.54 341.094 1162.05 341.988C1164.45 342.603 1166.72 343.768 1170.54 345.734L1179.36 350.941L1189.38 356.775C1196.35 360.916 1203.35 365.011 1210.38 369.06C1295.42 418.057 1381.37 470.095 1454.75 535.899C1463.62 544.139 1472.52 552.074 1481.97 559.633C1505.85 578.468 1527.88 598.651 1549.46 619.784L1547.73 623.254L1635.74 711.397L1636.57 708.897C1661.27 735.797 1685 763.495 1708.03 792.194L1712.89 798.37C1716.51 802.959 1720.12 807.545 1723.74 812.131L1742.08 834.691C1747.27 841.056 1752.35 847.518 1757.27 854.104C1759.27 858.863 1760.23 861.129 1761.34 863.316C1762.34 865.293 1763.47 867.206 1765.62 870.84L1765.65 870.893C1777.01 877.124 1785.87 879.22 1798.77 880.402L1811.48 880.336C1824.84 880.406 1835.58 879.686 1848.38 875.778C1892.82 859.875 1939.62 848.604 1985.66 838.362L1995.35 836.265C2018.88 831.025 2042.4 827.289 2065.99 824.7C2090.22 824.622 2114.45 824.56 2138.68 824.518C2149.57 824.501 2160.47 824.481 2171.36 824.46C2182.7 824.422 2194.04 824.385 2205.38 824.358V723.232Z" fill="#EB2525"/>
<path d="M2205.38 3401.67C2162.05 3402.88 2119.98 3390.22 2080.14 3367.86C2038.28 3343.07 2007.52 3330.68 1958.45 3330.65C1944.47 3330.71 1931.75 3329.25 1918.08 3326.03L1903.94 3322.09C1930.27 3365.83 1965.29 3399.37 2006.25 3429.43C2066.98 3471.9 2134.14 3493.14 2205.38 3492.37V3401.67Z" fill="#EB2525"/>
<path d="M2205.38 4081.2C2197.83 4079.86 2192.09 4077.11 2184.58 4073.43L2165.02 4062.31L2153.81 4055.83C2038.68 3989.5 1929.72 3914.5 1827.15 3830.04C1822.02 3825.81 1816.89 3821.59 1811.75 3817.37C1782.71 3794.12 1754.95 3770.05 1727.86 3744.57C1717.92 3735.22 1707.99 3725.91 1697.71 3716.93C1645.5 3672.58 1598.63 3621.14 1553.76 3569.47C1545.79 3560.22 1537.7 3551.17 1529.4 3542.22C1498.68 3509.22 1469.84 3474.91 1441.52 3439.83L1434.58 3431.22C1350.7 3328.02 1274.86 3215.4 1215.27 3096.03C1214.82 3094.52 1214.21 3092.84 1213.41 3090.62L1213.41 3090.61L1203.87 3070.43L1198.6 3059.5C1197.51 3057.18 1196.46 3054.88 1195.41 3052.6C1191.32 3043.68 1187.37 3035.07 1182.45 3027.03C1178.31 3019.77 1173.52 3013.8 1166.53 3007.43L1166.38 3007.3C1166.38 3011.67 1166.38 3013.76 1166.68 3015.81C1166.95 3017.7 1167.48 3019.56 1168.49 3023.11L1174.7 3041.85L1178.17 3052.16C1182.08 3064.03 1186.14 3075.75 1190.5 3087.34C1193.55 3095.91 1196.63 3104.46 1199.76 3113.01L1204.1 3124.82C1275.63 3319.97 1382.18 3508.5 1521.54 3663.64L1522.89 3665.1C1530.5 3673.36 1538.11 3681.61 1545.42 3690.15C1565.02 3713.04 1585.86 3734.48 1607.19 3755.75L1613.21 3761.76C1662.84 3811.31 1713.68 3858.8 1767.28 3904.03L1774.03 3909.71C1879.34 3998.44 1992.7 4077.66 2112.87 4144.86L2125 4151.58C2126.62 4152.48 2128.24 4153.39 2129.86 4154.29L2130 4154.37C2151.42 4166.36 2173.25 4178.57 2196.74 4185.74C2199.87 4186.09 2202.72 4186.11 2205.38 4185.86V4081.2Z" fill="#EB2525"/>
<path d="M2004.52 1853.05C1994.62 1771.52 1943.03 1708.09 1881.68 1656.83C1808.33 1602.42 1716.76 1583.13 1627.36 1601.22C1627.36 1604.7 1627.36 1606.73 1627.89 1608.62C1628.64 1611.28 1630.45 1613.65 1634.82 1619.35C1685.02 1680.08 1724.27 1757.38 1748.89 1832.07C1678.63 1795.91 1599.08 1773.43 1519.53 1776.45L1505.83 1777.5C1426.6 1783.09 1334.95 1809.67 1279.53 1869.84C1383.17 1845.98 1488.01 1832.76 1593.15 1855.19C1716.26 1883.07 1852.6 1950.11 1923.32 2059.77C1923.63 2060.3 1923.92 2060.82 1924.21 2061.31L1924.62 2062.05C1930.81 2072.95 1932.03 2075.09 1945.85 2079.7C1988.01 2007.3 2008.81 1936.63 2004.52 1853.05Z" fill="#EB2525"/>
<path d="M1199.61 453.337C1264.21 467.635 1323.05 525.461 1369.93 571.534L1369.95 571.548C1373.85 575.389 1377.68 579.147 1381.42 582.792C1387.91 589.114 1394.46 595.362 1401.04 601.596C1430.77 630.36 1456.13 661.421 1480.68 694.608L1486.99 703.109C1553.94 793.997 1570.74 816.796 1572.75 840.835C1573.42 848.885 1572.44 857.073 1571.12 868.003C1563.8 901.901 1542.46 930.021 1521.02 956.412C1515.8 962.993 1510.59 969.578 1505.38 976.168L1497.26 986.409C1444.09 1053.89 1396.27 1123.32 1353.39 1197.75L1347.93 1207.21C1346.15 1211.12 1344.02 1214.95 1341.44 1218.84C1333 1234.4 1325.24 1250.2 1317.87 1266.26C1314.96 1272.99 1311.94 1279.69 1308.86 1286.42C1304.87 1274.43 1304.88 1270.44 1307.52 1260.73C1308.48 1256 1309.92 1251.23 1311.47 1246.09C1311.99 1244.36 1312.52 1242.6 1313.05 1240.78L1315.92 1230.75C1318.59 1221.55 1321.34 1212.39 1324.16 1203.27L1325.63 1198.28L1325.67 1198.42C1357.45 1096.84 1398.61 1000.27 1450.14 907.035C1451.86 903.362 1453.66 899.712 1455.54 896.076H1456.25C1458.82 891.509 1461.42 886.95 1464.04 882.399L1468.11 875.09L1473.21 866.634L1476.49 858.301C1471.58 847.484 1466.65 838.529 1460.25 828.658L1454.95 820.185C1418.68 762.924 1375.92 710.598 1329.82 661.03L1320.98 651.487C1295.5 624.945 1267.08 603.128 1237.62 581.282L1235.35 588.272C1228.99 607.636 1222.25 626.776 1215 645.825C1188.83 714.903 1166.9 785.628 1151.51 857.918C1149.59 866.829 1147.53 875.703 1145.47 884.583C1120.96 994.102 1113.4 1107.31 1111.9 1219.27C1045.8 1096.1 1065.45 897.331 1090.95 765.961L1093.26 753.591C1131.49 551.672 1139.68 508.439 1163.48 477.1C1169.96 468.562 1177.61 460.907 1187.33 451.167H1199.91L1199.9 451.179C1199.8 451.973 1199.7 452.687 1199.61 453.337Z" fill="#EB2525"/>
<path d="M1701.83 2015.91C1681.68 2003.87 1664.11 1993.36 1639.93 1991.56C1622.04 2011.72 1620.82 2028.32 1621.84 2054.95C1625.55 2088.95 1644.45 2112.11 1669.77 2133.32C1699.08 2153.85 1726.5 2154.65 1761.46 2151.06C1777.05 2145.85 1789.03 2138.84 1799.17 2125.87C1802.4 2114.03 1801.92 2104.21 1799.17 2092.3C1794.67 2084.25 1791.49 2078.57 1787.5 2073.51C1777.88 2061.3 1763.6 2052.76 1714.83 2023.6L1704.1 2017.27L1701.83 2015.91Z" fill="#EB2525"/>
<path d="M2205.38 723.232C2206.55 723.226 2207.73 723.221 2208.9 723.218L2220.27 723.202C2253.21 723.154 2285.48 724.854 2317.35 727.955C2337.77 727.896 2357.82 728.882 2378.24 732.24L2389.21 734.219C2446.12 744.228 2446.13 744.229 2582.5 779.549L2594.82 782.75C2594.82 776.589 2594.82 774.95 2597.35 771.286C2602.67 761.345 2619.12 742.48 2670.02 684.094L2670.03 684.082L2682.82 669.424C2708.28 639.786 2735.09 612.217 2763.65 585.552L2788.03 562.886C2795.86 555.61 2803.69 548.327 2811.46 540.986C2845.6 508.642 2881.02 478.383 2917.84 449.138L2925.88 442.772C2952.81 421.411 2980.09 400.655 3008.38 381.125C3017.21 375.105 3026.03 369.073 3034.84 363.024C3092.98 320.118 3156.7 286.513 3221.53 254.978L3229.7 251.01C3233.47 249.174 3237.23 247.34 3240.99 245.507L3245.69 243.221L3260.74 236.008C3276.32 228.541 3290.14 222.975 3307.23 220.317C3309.93 225.725 3312.75 231.075 3315.72 236.343C3391.97 370.425 3449.17 514.277 3487.98 663.577L3491.62 677.819C3539.32 861.021 3551.19 1057.08 3530.69 1245.17L3529.34 1257.04C3523.4 1310.74 3515.93 1364.17 3507.86 1417.59C3505.76 1431.08 3503.69 1444.57 3501.8 1458.09L3500.01 1471.1C3494.83 1502.46 3492.94 1523.29 3510.55 1550.61C3515.24 1557.34 3519.79 1564.17 3524.23 1571.07L3531.4 1582.34C3680.83 1813.79 3796.06 2095.79 3789.16 2373.51C3779.79 2373.51 3775.66 2373.51 3771.63 2372.87C3768.45 2372.36 3765.34 2371.46 3759.76 2369.84L3746.21 2365.12L3732.52 2360.4L3722.11 2356.72C3722.82 2389.7 3720.56 2422.36 3717.94 2455.21L3717.14 2465.06C3712.03 2527.89 3703.78 2589.32 3691.09 2651.12L3688.59 2663.12C3657.67 2816.74 3599.8 2966.97 3522.18 3102.8L3516.77 3112.23C3476.16 3183.69 3431.02 3253.79 3379.93 3318.19C3374.81 3324.6 3369.69 3331.01 3364.69 3337.52C3341.49 3367.96 3317.53 3397.07 3291.34 3424.99C3282.5 3434.39 3273.71 3443.8 3265.2 3453.5C3243.18 3479.22 3219.99 3503.28 3194.35 3525.4C3185.55 3532.96 3177.09 3540.59 3168.89 3548.81C3100.16 3619.56 3019.59 3682.74 2938.34 3738.38L2929.81 3744.18C2928.65 3744.98 2927.51 3745.77 2926.4 3746.56C2925.83 3746.96 2925.27 3747.35 2924.72 3747.74L2924.66 3747.78C2919.66 3751.32 2914.98 3754.63 2910.03 3757.23C2903.83 3761 2898.37 3762.8 2888.16 3762.8L2893.99 3756.53L2901.78 3748.38C2906.3 3743.59 2910.14 3739.82 2914.27 3736.87C2927.52 3723.52 2940.55 3709.96 2953.12 3695.91C2963.07 3684.67 2973.06 3673.49 2983.24 3662.46C3005.13 3638.86 3026.39 3614.97 3046.53 3589.81L3055.79 3578.12C3121.18 3497.99 3176.93 3410.09 3222 3317.04L3227.61 3305.3C3248.93 3260.72 3267.78 3215.47 3283.06 3168.44L3286.28 3158.4C3308.65 3089.5 3323.58 3020.81 3335.11 2949.33L3336.57 2940.14H3344.95C3358.46 2957.12 3368.94 2973.96 3377.54 2993.86L3381.09 3002.58C3394.11 3034.15 3401.18 3065.4 3406.09 3099.13L3407.81 3112.23C3468.09 3012.61 3517.67 2906.78 3554.85 2796.4L3558.68 2784.84C3596.34 2671.29 3615.88 2555.08 3623.58 2435.95C3624.53 2420.48 3625.49 2405.06 3627.16 2389.64C3629.12 2372.87 3630.86 2356.35 3629.85 2339.46C3622.3 2321.65 3618.47 2312.63 3612.81 2304.96C3607 2297.09 3599.25 2290.65 3583.55 2277.59L3583.54 2277.58L3582.54 2276.78C3574.85 2270.63 3567.18 2264.49 3559.74 2258.03C3546.42 2246.15 3532.92 2234.59 3519.03 2223.38L3512.58 2218.21C3422.83 2145.83 3300.5 2071.86 3181.51 2071.31L3188.7 2080.29L3198.27 2092.3C3243.29 2148.55 3282.23 2207.61 3315.01 2271.84C3319.56 2280.84 3324.13 2289.82 3328.8 2298.75C3332 2304.83 3335.18 2310.91 3338.33 2317.01L3342.85 2325.77L3347.15 2333.89C3357.61 2354.48 3365.42 2374.06 3358.39 2396.89L3352.55 2407.61L3345.42 2420.76C3340.68 2429.16 3335.98 2437.56 3331.37 2446.02C3277.57 2545.08 3211.24 2636.19 3138.07 2721.77C3135.83 2724.34 3133.6 2726.91 3131.37 2729.48L3127.03 2734.48C3108.2 2756.62 3088.6 2777.7 3068.09 2798.29L3057.36 2808.98C2996.24 2869.96 2933 2928.95 2865.08 2982.36L2854.64 2990.51C2852.58 2992.15 2850.53 2993.79 2848.47 2995.44L2848.47 2995.44C2829.7 3010.46 2810.93 3025.48 2790.76 3038.59C2785.55 3041.88 2780.14 3045.09 2774.68 3048.35L2774.67 3048.35L2774.65 3048.36L2774.5 3048.45L2774.49 3048.46L2774.45 3048.48C2750.01 3063.03 2724.48 3078.22 2710.32 3102.79C2689.39 3146.33 2660.5 3188.55 2625.15 3221.57L2615.77 3229.75C2577.34 3263.59 2537 3288.21 2487.58 3302.43C2404.83 3319.05 2311.73 3289.96 2242.01 3244.97C2235.36 3240.37 2232.23 3238.2 2229 3236.21C2226.14 3234.45 2223.2 3232.82 2217.65 3229.75L2217.54 3229.74L2217.43 3229.73L2217.42 3229.73L2217.42 3229.72L2217.4 3229.72L2217.39 3229.72L2217.38 3229.72L2217.37 3229.72L2217.35 3229.72L2217.34 3229.72L2217.32 3229.71L2217.31 3229.71L2217.29 3229.71L2217.28 3229.71L2217.26 3229.71L2217.25 3229.71L2217.22 3229.7L2217.21 3229.7L2217.17 3229.7L2217.17 3229.7L2217.11 3229.69L2216.86 3229.67L2216.85 3229.67L2216.84 3229.67C2211.63 3229.23 2208.13 3228.94 2205.38 3229.04V3176.08C2281.42 3174.63 2349.01 3153.63 2408.77 3101.05C2451.14 3059.65 2481.05 3010 2482.98 2949.59C2482.53 2916.54 2470.03 2886.91 2447.14 2863.08C2423.33 2840.87 2396.91 2830.98 2365.64 2823.93L2354.37 2821.3C2343.74 2818.86 2333.09 2816.52 2322.42 2814.22L2308.39 2811.04C2274.65 2804.58 2240.04 2802.42 2205.38 2803.4V2229.31C2206.09 2229.3 2206.81 2229.29 2207.52 2229.29L2216.08 2229.23C2270.9 2228.64 2322.35 2234.58 2374.23 2253.24L2383.45 2256.78C2450.52 2282.19 2511.57 2320.55 2561.22 2372.79L2569.67 2381.91C2701.4 2518.64 2768.32 2710.82 2809.92 2893.51L2812.73 2906.56H2821.11C2895.03 2842.74 2953.71 2758.85 3000.01 2673.55C3113.82 2457.23 3137.94 2232.46 3066.47 1998.94L3064.17 1991.56L3064.18 1991.56C3070.84 1990 3075.32 1988.95 3079.86 1988.24C3089.22 1986.77 3098.8 1986.72 3128.11 1986.58L3144.58 1986.58C3176.74 1986.27 3207.65 1986.04 3239.09 1993.37L3248.56 1995.76C3394.67 2028.66 3527.62 2106.43 3638.04 2206.93C3654.58 2222.3 3671.35 2237.21 3688.59 2251.79C3693.66 2122.69 3628.19 1963.81 3570.54 1851.23C3566.68 1843.73 3562.84 1836.22 3559.11 1828.65C3524.94 1758.72 3487.54 1690.73 3447.88 1623.78C3404.89 1552.49 3393.92 1508.19 3409.23 1427.58C3444.72 1241.54 3457.72 1046.94 3430.7 858.725L3428.76 845.709C3403.26 667.124 3345.26 503.099 3265.33 342.038C3256 341.367 3252.21 341.094 3248.71 341.988C3246.3 342.603 3244.04 343.768 3240.21 345.734L3231.39 350.941L3221.37 356.775C3214.4 360.916 3207.4 365.011 3200.37 369.06C3115.33 418.057 3029.38 470.095 2956 535.899C2947.13 544.139 2938.24 552.074 2928.78 559.633C2904.9 578.468 2882.87 598.651 2861.29 619.784L2863.02 623.254L2775.02 711.397L2774.18 708.897C2749.49 735.797 2725.75 763.495 2702.73 792.194L2697.86 798.37C2694.24 802.959 2690.63 807.545 2687.01 812.131L2668.68 834.691C2663.48 841.056 2658.4 847.518 2653.48 854.104C2651.48 858.863 2650.52 861.129 2649.41 863.316C2648.41 865.293 2647.28 867.206 2645.13 870.84L2645.1 870.893C2633.74 877.124 2624.89 879.22 2611.99 880.402L2599.27 880.336C2585.91 880.406 2575.17 879.686 2562.37 875.778C2517.93 859.875 2471.13 848.604 2425.1 838.362L2415.4 836.265C2391.87 831.025 2368.35 827.289 2344.76 824.7C2320.53 824.622 2296.3 824.56 2272.08 824.518C2261.18 824.501 2250.29 824.481 2239.39 824.46C2228.05 824.422 2216.72 824.385 2205.38 824.358V723.232Z" fill="#EB2525"/>
<path d="M2205.38 3401.67C2248.7 3402.88 2290.77 3390.22 2330.61 3367.86C2372.47 3343.07 2403.24 3330.68 2452.3 3330.65C2466.28 3330.71 2479 3329.25 2492.67 3326.03L2506.81 3322.09C2480.49 3365.83 2445.46 3399.37 2404.5 3429.43C2343.78 3471.9 2276.61 3493.14 2205.38 3492.37V3401.67Z" fill="#EB2525"/>
<path d="M2205.38 4081.2C2212.92 4079.86 2218.66 4077.11 2226.17 4073.43L2245.73 4062.31L2256.94 4055.83C2372.07 3989.5 2481.03 3914.5 2583.6 3830.04C2588.73 3825.81 2593.87 3821.59 2599.01 3817.37C2628.05 3794.12 2655.81 3770.05 2682.89 3744.57C2692.84 3735.22 2702.76 3725.91 2713.04 3716.93C2765.26 3672.58 2812.12 3621.14 2857 3569.47C2864.96 3560.22 2873.05 3551.17 2881.35 3542.22C2912.07 3509.22 2940.91 3474.91 2969.23 3439.83L2976.17 3431.22C3060.05 3328.02 3135.9 3215.4 3195.48 3096.03C3195.93 3094.52 3196.54 3092.84 3197.34 3090.62L3197.35 3090.61L3206.88 3070.43L3212.16 3059.5C3213.24 3057.18 3214.3 3054.88 3215.34 3052.6C3219.43 3043.68 3223.38 3035.07 3228.31 3027.03C3232.44 3019.77 3237.23 3013.8 3244.23 3007.43L3244.37 3007.3C3244.37 3011.67 3244.37 3013.76 3244.08 3015.81C3243.8 3017.7 3243.27 3019.56 3242.26 3023.11L3236.05 3041.85L3232.59 3052.16C3228.67 3064.03 3224.61 3075.75 3220.25 3087.34C3217.21 3095.91 3214.12 3104.46 3211 3113.01L3206.66 3124.82C3135.12 3319.97 3028.58 3508.5 2889.21 3663.64L2887.87 3665.1C2880.25 3673.36 2872.64 3681.61 2865.33 3690.15C2845.74 3713.04 2824.89 3734.48 2803.57 3755.75L2797.54 3761.76C2747.91 3811.31 2697.07 3858.8 2643.47 3904.03L2636.72 3909.71C2531.41 3998.44 2418.05 4077.66 2297.88 4144.86L2285.75 4151.58C2284.13 4152.48 2282.51 4153.39 2280.89 4154.29L2280.75 4154.37C2259.33 4166.36 2237.5 4178.57 2214.02 4185.74C2210.88 4186.09 2208.04 4186.11 2205.38 4185.86V4081.2Z" fill="#EB2525"/>
<path d="M2406.23 1853.05C2416.13 1771.52 2467.72 1708.09 2529.07 1656.83C2602.43 1602.42 2693.99 1583.13 2783.4 1601.22C2783.4 1604.7 2783.4 1606.73 2782.86 1608.62C2782.11 1611.28 2780.3 1613.65 2775.93 1619.35C2725.73 1680.08 2686.48 1757.38 2661.87 1832.07C2732.13 1795.91 2811.67 1773.43 2891.23 1776.45L2904.93 1777.5C2984.15 1783.09 3075.8 1809.67 3131.22 1869.84C3027.58 1845.98 2922.74 1832.76 2817.6 1855.19C2694.49 1883.07 2558.16 1950.11 2487.43 2059.77C2487.12 2060.3 2486.83 2060.82 2486.55 2061.31L2486.13 2062.05C2479.94 2072.95 2478.72 2075.09 2464.9 2079.7C2422.74 2007.3 2401.94 1936.63 2406.23 1853.05Z" fill="#EB2525"/>
<path d="M3211.14 453.337C3146.54 467.635 3087.7 525.461 3040.82 571.534L3040.81 571.548C3036.9 575.389 3033.07 579.147 3029.34 582.792C3022.84 589.114 3016.29 595.362 3009.71 601.596C2979.98 630.36 2954.62 661.421 2930.07 694.608L2923.76 703.109C2856.81 793.997 2840.01 816.796 2838 840.835C2837.33 848.885 2838.32 857.073 2839.63 868.003C2846.95 901.901 2868.29 930.021 2889.74 956.412C2894.95 962.993 2900.16 969.578 2905.37 976.168L2913.49 986.409C2966.66 1053.89 3014.48 1123.32 3057.36 1197.75L3062.83 1207.21C3064.6 1211.12 3066.73 1214.95 3069.31 1218.84C3077.75 1234.4 3085.51 1250.2 3092.88 1266.26C3095.79 1272.99 3098.81 1279.69 3101.89 1286.42C3105.88 1274.43 3105.88 1270.44 3103.23 1260.73C3102.28 1256 3100.84 1251.23 3099.29 1246.09C3098.76 1244.36 3098.23 1242.6 3097.7 1240.78L3094.83 1230.75C3092.16 1221.55 3089.42 1212.39 3086.59 1203.27L3085.13 1198.28L3085.08 1198.42C3053.3 1096.84 3012.14 1000.27 2960.61 907.035C2958.89 903.362 2957.1 899.712 2955.22 896.076H2954.5C2951.93 891.509 2949.33 886.95 2946.71 882.399L2942.64 875.09L2937.54 866.634L2934.26 858.301C2939.17 847.484 2944.1 838.529 2950.5 828.658L2955.8 820.185C2992.07 762.924 3034.83 710.598 3080.94 661.03L3089.78 651.487C3115.25 624.945 3143.67 603.128 3173.13 581.282L3175.4 588.272C3181.76 607.636 3188.51 626.776 3195.75 645.825C3221.92 714.903 3243.85 785.628 3259.24 857.918C3261.17 866.829 3263.22 875.703 3265.28 884.583C3289.79 994.102 3297.35 1107.31 3298.85 1219.27C3364.95 1096.1 3345.31 897.331 3319.81 765.961L3317.5 753.591C3279.26 551.672 3271.07 508.439 3247.27 477.1C3240.79 468.562 3233.15 460.907 3223.42 451.167H3210.85L3210.85 451.179C3210.95 451.973 3211.05 452.687 3211.14 453.337Z" fill="#EB2525"/>
<path d="M2708.92 2015.91C2729.07 2003.87 2746.65 1993.36 2770.82 1991.56C2788.71 2011.72 2789.93 2028.32 2788.91 2054.95C2785.21 2088.95 2766.3 2112.11 2740.98 2133.32C2711.67 2153.85 2684.26 2154.65 2649.29 2151.06C2633.7 2145.85 2621.72 2138.84 2611.58 2125.87C2608.35 2114.03 2608.83 2104.21 2611.58 2092.3C2616.08 2084.25 2619.27 2078.57 2623.25 2073.51C2632.87 2061.3 2647.15 2052.76 2695.92 2023.6L2706.65 2017.27L2708.92 2015.91Z" fill="#EB2525"/>
<path d="M2211.99 3401.7H2198.77V3492.03H2211.99V3401.7Z" fill="#EB2525"/>
<path d="M2212 4081H2199V4186H2212V4081Z" fill="#EB2525"/>
<path d="M2212 3176H2199V3229H2212V3176Z" fill="#EB2525"/>
<path d="M2210 723H2197V824H2210V723Z" fill="#EB2525"/>
<path d="M2212 2230H2199V2803H2212V2230Z" fill="#EB2525"/>
</svg>
