<svg width="1080" height="1080" viewBox="0 0 1080 1080" fill="none" xmlns="http://www.w3.org/2000/svg">
<path d="M0 0H1080V1080H0V0Z" fill="#DAD2D8"/>
<path fill-rule="evenodd" clip-rule="evenodd" d="M540.142 118.772C532.446 119.032 524.711 118.644 516.888 117.145C511.695 116.15 506.53 115.016 501.364 113.882C491.242 111.658 481.117 109.435 470.774 108.26C453.52 106.3 437.654 109.354 424.103 120.489C410.877 131.355 400.567 144.926 391.086 159.051C385.327 167.63 380.562 176.724 378.639 187.148C377.177 195.074 375.694 202.996 374.211 210.918C368.35 242.232 362.489 273.545 357.905 305.089C357.64 306.909 357.431 308.747 357.222 310.59C356.544 316.55 355.861 322.556 353.283 328.127C350.26 328.164 347.963 326.926 345.74 325.729C345.143 325.407 344.55 325.088 343.951 324.797C323.947 315.098 304.55 304.274 285.152 293.45L285.15 293.449C274.693 287.613 264.235 281.778 253.683 276.119C233.988 265.557 214.063 255.789 190.999 253.949C157.816 251.3 136.127 269.146 136.102 301.744C136.086 321.42 143.038 339.119 152.575 356.004C163.19 374.8 177.861 390.222 193.343 404.888C226.261 436.072 263.911 459.616 307.187 473.663C311.95 475.209 313.736 477.869 314.095 482.387C315.568 500.96 320.159 518.767 327.611 536.355C334.493 551.495 342.96 565.393 356.331 574.37C365.042 580.219 368.983 586.246 369.765 596.51C370.32 603.796 370.282 608.357 362.302 610.879C356.381 612.751 351.615 617.208 347.039 621.494C344.481 623.889 341.836 626.714 341.865 630.176C341.913 635.944 341.244 641.681 340.574 647.421C339.433 657.194 338.292 666.976 340.692 676.935C344.128 691.196 346.529 705.718 335.993 718.628C335.237 719.555 334.847 720.789 334.459 722.014C334.314 722.473 334.169 722.93 334.006 723.37L333.971 723.462C324.753 748.244 324.733 748.297 338.425 771.378C357.196 803.02 380.933 830.773 406.106 857.377C445.384 898.888 488.332 936.242 534.135 970.372C536.351 972.023 538.123 972.628 540.142 972.117V752.659C538.132 752.631 536.119 753.73 533.965 755.69C532.385 757.127 530.625 758.367 528.811 759.644L528.809 759.646C527.976 760.233 527.131 760.828 526.287 761.453C524.547 757.658 525.615 754.576 526.847 752.086C529.587 746.546 527.758 743.274 522.676 740.943L522.24 740.686C518.159 738.284 514.738 736.27 510.592 731.849C525.148 733.014 536.215 730.043 540.142 714.912V649.448C537.781 648.734 535.732 649.539 533.587 651.23C531.533 652.85 529.346 654.303 526.954 655.893C525.844 656.632 524.688 657.4 523.481 658.227C522.339 654.717 523.263 651.753 524.125 648.989C524.368 648.211 524.606 647.448 524.791 646.694C525.941 642.015 524.932 638.857 520.925 636.247C518.274 634.52 515.732 632.626 512.876 630.497L512.874 630.495C511.528 629.492 510.112 628.437 508.582 627.323C514.102 625.627 518.597 625.85 522.914 626.237C529.531 626.829 532.933 623.803 534.567 617.784C535.335 614.955 536.469 612.225 538.279 608.51C538.657 611.316 539.291 613.686 540.142 615.688V555.64C530.69 555.463 521.287 556.655 511.884 558.507C505.048 559.853 503.757 557.909 506.255 551.169C507.445 547.955 508.626 544.736 509.707 541.485C509.824 541.136 509.703 540.708 509.56 540.201L509.559 540.199C509.522 540.068 509.484 539.933 509.448 539.792C509.412 539.652 509.378 539.506 509.35 539.356C504.478 537.865 501.185 540.822 498.143 543.555C497.954 543.724 497.767 543.892 497.581 544.058C492.254 548.802 487.905 554.513 484.928 561.009C483.023 565.165 480.123 567.259 475.832 568.228C448.936 574.299 423.151 583.732 397.761 594.319C395.167 595.401 392.264 596.529 391.658 592.766C391.038 588.924 390.274 585.103 389.506 581.261C387.962 573.539 386.402 565.738 385.971 557.538C387.895 557.764 389.713 558.39 391.493 559.003C394.972 560.201 398.305 561.349 401.996 559.357C403.14 556.417 401.394 554.488 399.725 552.645C399.426 552.315 399.129 551.987 398.852 551.658C373.852 521.868 371.446 488.459 383.27 452.957C385.12 447.399 387.381 441.985 389.641 436.57C393.504 427.317 397.369 418.061 399.194 408.078C400.19 402.633 403.528 401.989 408.275 403.464C425.728 408.885 443.419 413.364 461.473 416.313C462.776 416.526 464.085 416.696 465.395 416.866C466.002 416.945 466.609 417.024 467.216 417.107C491.764 422.64 516.025 425.003 540.142 424.834V404.62C531.367 404.658 522.596 404.382 513.817 403.644C483.576 401.337 455.389 394.826 427.493 386.728C375.247 371.562 327.556 346.468 280.553 319.8C279.648 319.287 278.743 318.773 277.839 318.26C258.18 307.097 238.485 295.913 217.124 288.228C203.019 283.154 188.54 280.338 173.546 284.731C172.019 285.179 170.563 285.893 169.104 286.609C166.159 288.055 163.201 289.507 159.615 288.785C160.404 280.431 168.021 274.516 178.269 273.722C202.054 271.879 223.587 279.034 244.478 289.51C261.384 297.988 277.967 307.073 294.55 316.158C313.784 326.696 333.019 337.233 352.755 346.822C387.697 363.8 424.168 376.751 461.972 385.238C487.592 390.99 513.731 394.877 540.142 394.843V302.212C538.606 302.246 537.076 302.98 535.318 304.307C532.009 306.804 528.489 309.395 524.207 310.192C522.343 307.741 523.22 305.68 524.042 303.749C524.29 303.166 524.534 302.595 524.695 302.028L524.786 301.708C527.746 291.299 527.758 291.256 518.845 284.492C516.804 282.943 514.755 281.405 512.576 279.77L512.561 279.759C511.52 278.978 510.449 278.174 509.336 277.337C514.623 274.596 519.691 274.876 524.584 275.147C524.779 275.158 524.973 275.169 525.167 275.179C525.322 275.187 525.475 275.196 525.629 275.204C530.804 275.474 533.579 273.641 534.856 268.571C535.502 266.005 536.56 263.544 537.617 261.082L537.618 261.08C538.089 259.983 538.56 258.886 538.995 257.779C539.413 257.697 539.794 257.649 540.142 257.632V212.014C537.276 211.657 534.981 213.197 532.637 214.77C530.595 216.14 528.517 217.534 525.994 217.718C525.278 215.168 526.18 212.777 527.062 210.44C528.112 207.655 529.133 204.948 527.35 202.143C526.06 200.114 524.096 198.707 522.086 197.268C519.698 195.558 517.244 193.801 515.779 190.897C518.704 189.113 521.917 188.793 524.636 188.997C531.627 189.521 534.68 186.136 536.227 179.895C536.279 179.689 536.329 179.478 536.38 179.266C536.927 176.978 537.54 174.414 540.142 172.913V145.129C535.55 144.801 530.96 144.373 526.414 143.7C526.213 143.671 526.003 143.642 525.786 143.613C523.473 143.301 520.452 142.894 520.865 139.694C521.288 136.416 523.54 133.996 527.562 134.177C531.768 134.366 535.959 134.294 540.142 134.07V118.772ZM467.444 852.751C467.418 850.016 467.392 847.281 467.386 844.546C467.388 817.767 467.388 792.278 467.388 765.39C481.73 776.034 495.513 784.296 509.971 791.386C512.913 792.829 513.098 795.164 513.295 797.657C513.315 797.901 513.334 798.147 513.356 798.393C514.638 812.656 514.446 826.938 514.253 841.22C514.156 848.418 514.059 855.615 514.151 862.811C514.33 876.852 514.293 890.897 514.256 904.941C514.241 910.883 514.225 916.825 514.226 922.766V922.779C514.226 925.562 514.227 928.355 512.461 931.645C509.485 929.251 506.581 926.777 503.688 924.311C497.243 918.82 490.849 913.371 483.812 908.945C469.153 899.723 466.969 886.231 467.392 870.977C467.56 864.907 467.502 858.831 467.444 852.754V852.751ZM395.468 705.131C397.247 706.949 399.026 708.767 400.805 710.585C401.696 711.49 402.475 712.377 403.206 713.21C404.608 714.806 405.834 716.202 407.343 717.147C416.218 722.705 418.011 730.63 417.856 740.65C417.64 754.552 417.757 768.456 417.875 782.362V782.364C418.023 800.012 418.172 817.661 417.641 835.308C417.624 835.853 417.652 836.407 417.679 836.967C417.767 838.748 417.859 840.602 416.565 842.493C413.171 841.149 410.908 838.446 408.732 835.847L408.697 835.805C408.6 835.689 408.503 835.574 408.406 835.458C408.306 835.339 408.206 835.22 408.106 835.102C402.971 829.028 397.905 822.895 392.839 816.762C387.65 810.481 382.461 804.2 377.198 797.981C373.909 794.094 372.947 789.967 373.144 784.969C373.23 782.795 373.319 780.621 373.407 778.447C374.503 751.465 375.599 724.474 371.894 697.555C371.664 695.882 371.775 694.104 372.061 692.432C372.421 690.334 372.849 687.985 375.177 687.155C377.33 686.388 378.618 687.801 379.859 689.163C380.081 689.406 380.3 689.648 380.523 689.874C385.512 694.953 390.49 700.042 395.468 705.131ZM427.965 276.273C434.968 276.696 439.714 274.611 440.68 267.019C441.108 266.023 441.39 265.048 441.657 264.122C442.293 261.923 442.848 260.003 445.087 258.748C447.471 261.173 448.685 264.203 449.891 267.209C450.329 268.303 450.767 269.395 451.259 270.453C453.088 274.382 455.318 276.477 460.226 275.412C464.287 274.532 468.673 274.619 473.282 275.951C471.814 280.265 468.551 282.519 465.485 284.636C464.795 285.112 464.115 285.582 463.468 286.066C459.43 289.089 458.888 292.106 460.319 296.469C461.171 299.067 461.777 301.745 462.438 304.671C462.747 306.035 463.068 307.453 463.431 308.942C458.234 308.101 454.496 306.123 451.468 303.223C448.131 300.029 445.466 300.309 441.978 303.011C438.884 305.409 435.537 307.942 431.114 307.556C429.965 304.935 430.624 302.273 431.577 300.5C435.55 293.106 431.742 289.009 426.084 285.255C424.169 283.985 422.355 282.564 420.371 281.012C419.422 280.269 418.434 279.495 417.377 278.694C420.599 275.792 424.107 276.022 427.282 276.23C427.511 276.245 427.739 276.26 427.965 276.273ZM453.275 630.842C452.733 631.221 452.192 631.599 451.766 632.072C451.61 632.192 451.47 632.301 451.343 632.4C451.225 632.492 451.119 632.575 451.023 632.65C450.536 633.031 450.295 633.22 450.033 633.37C442.887 637.461 439.354 642.813 443.252 651.216C443.973 652.773 444.889 654.819 443.461 657.17C439.713 657.291 436.767 655.231 434.35 652.59C431.215 649.166 428.305 649.442 424.762 651.91C424.029 652.421 423.308 652.959 422.584 653.499L422.582 653.5C420.056 655.386 417.487 657.304 414.177 658.223C413.532 654.524 414.493 651.084 415.91 648.217C418.955 642.058 416.004 638.649 411.441 635.359C410.74 634.854 410 634.394 409.251 633.928C407.077 632.577 404.836 631.184 403.325 628.536C406.223 626.827 409.329 625.981 412.424 626.281C420.515 627.067 424.775 622.872 427.274 615.85C427.796 614.381 428.463 612.963 429.219 611.356C429.593 610.56 429.99 609.718 430.401 608.799C432.485 611.04 433.431 613.784 434.342 616.429C435.353 619.364 436.322 622.176 438.758 624.041C441.412 626.074 444.577 626.136 447.791 626.2C450.474 626.253 453.192 626.306 455.676 627.509C455.58 629.23 454.423 630.039 453.275 630.842ZM498.27 707.561C490.725 701.653 483.135 695.711 474.31 704.524C472.374 705.395 471.209 705.842 470.009 706.302C468.32 703.7 469.33 701.107 470.152 699.321C473.237 692.616 470.077 688.968 464.731 685.788C464.453 685.623 464.171 685.46 463.888 685.295C461.306 683.796 458.561 682.202 456.908 678.283C458.477 678.088 459.979 677.824 461.428 677.569L461.43 677.569C464.512 677.027 467.36 676.526 470.122 676.822C476.298 677.484 478.534 674.328 480.155 669.345C480.425 668.515 480.624 667.651 480.826 666.776C481.394 664.306 481.983 661.747 484.259 659.589C486.369 662.077 487.181 665.026 487.976 667.915C488.22 668.803 488.463 669.684 488.741 670.545C490.332 675.467 493.179 677.964 498.599 677.862C501.422 677.809 504.254 678.153 507.37 678.531C508.84 678.71 510.374 678.896 511.999 679.052C509.883 681.076 507.58 682.595 505.38 684.046C502.461 685.97 499.723 687.776 497.838 690.487C495.868 693.319 496.691 696.197 497.571 699.27C498.313 701.865 499.096 704.599 498.27 707.561ZM364.737 707.09C364.345 709.547 363.953 712.003 363.588 714.463C361.548 733.5 360.9 751.469 360.583 769.851C358.052 769.576 357.172 767.895 356.33 766.288C356.227 766.092 356.125 765.897 356.02 765.706C355.302 764.392 354.649 763.03 353.995 761.668C352.683 758.935 351.373 756.204 349.547 753.876C344.129 746.966 345.611 740.683 349.447 733.769C353.705 726.094 357.78 718.197 359.916 709.633C361.839 701.92 360.907 694.134 359.978 686.376L359.978 686.375C359.784 684.753 359.589 683.131 359.422 681.512C359.39 681.205 359.357 680.898 359.325 680.591C358.817 675.801 358.307 670.991 360.44 665.727C367.492 673.028 367.97 681.603 367.085 690.324C366.516 695.934 365.626 701.513 364.737 707.09ZM472.308 602.218C471.497 602.69 470.686 603.163 469.909 603.669C469.492 599.632 469.768 595.856 470.107 592.086C470.262 590.363 471.383 589.376 472.99 589.065C483.656 587.002 494.261 584.702 505.243 580.212C501.874 585.356 499.541 598.115 500.04 606.605C498.923 605.741 497.821 604.901 496.733 604.073C494.334 602.246 492.006 600.474 489.751 598.614C485.52 595.124 481.615 594.487 477.32 598.722C475.89 600.132 474.099 601.175 472.308 602.218ZM343.822 463.034C342.766 461.128 341.724 459.246 340.422 457.574C340.128 457.374 339.827 457.185 339.536 457.003L339.534 457.002C337.952 456.009 336.664 455.2 338.251 453.851C340.269 452.134 343.045 451.66 345.377 453.511C347.788 455.426 349.062 458.262 350.186 461.043C350.231 461.155 350.276 461.267 350.322 461.379L350.394 461.556C351.835 465.11 353.306 468.739 352.929 473.508C348.235 471.007 346 466.969 343.822 463.034Z" fill="#305CDE"/>
<path d="M540.142 467.334C534.429 467.192 528.454 469.757 522.669 476.463C518.308 481.52 513.097 484.242 506.099 481.781C503.392 480.829 500.617 480.076 497.84 479.323C495.637 478.725 493.433 478.127 491.263 477.429C484 475.095 476.747 472.729 469.495 470.364L469.478 470.358C459.374 467.062 449.269 463.766 439.138 460.556C432.885 458.574 426.906 459.505 421.283 463.175C414.396 467.671 408.185 472.953 402.43 478.764C402.148 479.049 401.857 479.331 401.562 479.617C399.635 481.484 397.571 483.485 397.118 487.13C409.161 484.038 420.756 481.592 433.754 485.788L432.824 486.344C423.077 492.171 414.245 497.451 406.73 507.645C408.231 507.656 409.709 507.655 411.164 507.654C422.227 507.645 431.965 507.637 440.695 513.243C434.967 501.842 435.127 501.111 444.029 499.08C444.176 499.509 444.326 499.94 444.477 500.374L444.479 500.378L444.479 500.379C444.807 501.323 445.139 502.277 445.451 503.237C447.634 509.954 452.95 514.351 459.414 514.768C466.539 515.228 472.315 511.844 475.555 505.292C475.772 504.853 475.937 504.354 476.103 503.853C476.63 502.263 477.165 500.647 479.374 500.861C482.067 501.122 484.022 502.826 484.875 505.798C480.9 511.207 475.183 514.311 468.746 517.806C466.98 518.765 465.159 519.754 463.305 520.827C470.522 522.945 476.753 521.33 482.769 519.771C486.637 518.768 490.416 517.789 494.31 517.839C494.371 523.735 491.4 527.89 488.156 532.428C486.521 534.714 484.817 537.098 483.396 539.85C491.905 535.71 498.146 530.898 504.422 526.057L504.43 526.051C505.523 525.209 506.616 524.366 507.723 523.525C508.753 523.26 509.774 523.212 510.764 523.165C512.663 523.076 514.444 522.993 515.936 521.389C519.723 517.322 523.682 517.394 527.962 522.605C528.207 521.144 528.464 519.805 528.706 518.547L528.707 518.541L528.707 518.538C529.199 515.976 529.627 513.746 529.767 511.498C530.167 505.104 533.763 500.95 539.219 498.796C539.535 498.671 539.842 498.572 540.142 498.496V467.334Z" fill="#305CDE"/>
<path fill-rule="evenodd" clip-rule="evenodd" d="M540.142 118.772C547.837 119.032 555.572 118.644 563.395 117.145C568.588 116.15 573.753 115.016 578.919 113.882C589.041 111.658 599.166 109.435 609.509 108.26C626.763 106.3 642.629 109.354 656.18 120.489C669.406 131.355 679.716 144.926 689.197 159.051C694.956 167.63 699.721 176.724 701.644 187.148C703.105 195.07 704.588 202.989 706.07 210.907L706.072 210.918C711.933 242.232 717.794 273.545 722.378 305.089C722.643 306.909 722.852 308.747 723.061 310.59C723.739 316.55 724.422 322.556 727 328.127C730.023 328.164 732.32 326.927 734.543 325.729C735.141 325.407 735.733 325.088 736.332 324.797C756.336 315.098 775.733 304.274 795.131 293.45L795.133 293.449C805.59 287.613 816.048 281.778 826.6 276.119C846.296 265.557 866.22 255.789 889.284 253.949C922.467 251.3 944.156 269.146 944.181 301.744C944.197 321.42 937.245 339.119 927.708 356.004C917.093 374.8 902.422 390.222 886.94 404.888C854.022 436.072 816.372 459.616 773.096 473.663C768.333 475.209 766.547 477.869 766.188 482.387C764.715 500.96 760.124 518.767 752.672 536.355C745.79 551.495 737.323 565.393 723.952 574.37C715.241 580.219 711.3 586.246 710.518 596.51C709.963 603.796 710.001 608.357 717.981 610.879C723.902 612.751 728.668 617.208 733.244 621.494C735.803 623.889 738.447 626.714 738.418 630.176C738.37 635.945 739.039 641.681 739.709 647.421C740.85 657.194 741.991 666.976 739.591 676.935C736.155 691.196 733.754 705.718 744.29 718.628C745.046 719.555 745.436 720.789 745.824 722.014C745.969 722.473 746.114 722.93 746.278 723.37L746.312 723.462C755.53 748.244 755.55 748.297 741.858 771.378C723.087 803.02 699.35 830.773 674.177 857.377C634.899 898.888 591.951 936.242 546.148 970.372C543.932 972.023 542.16 972.628 540.142 972.117V752.659C542.151 752.631 544.164 753.73 546.318 755.69C547.898 757.127 549.658 758.367 551.472 759.644C552.306 760.232 553.151 760.827 553.996 761.453C555.736 757.658 554.668 754.576 553.436 752.086C550.696 746.546 552.525 743.274 557.607 740.943L558.043 740.686C562.124 738.284 565.545 736.27 569.691 731.849C555.135 733.014 544.068 730.043 540.142 714.912V649.448C542.502 648.734 544.551 649.539 546.696 651.23C548.75 652.85 550.937 654.303 553.329 655.893C554.439 656.632 555.595 657.4 556.802 658.227C557.944 654.717 557.02 651.753 556.158 648.989C555.915 648.211 555.677 647.448 555.492 646.694C554.342 642.015 555.351 638.857 559.358 636.247C562.009 634.52 564.551 632.626 567.407 630.497L567.409 630.495C568.755 629.492 570.171 628.437 571.701 627.323C566.182 625.627 561.686 625.85 557.369 626.237C550.752 626.829 547.35 623.803 545.716 617.784C544.948 614.955 543.814 612.225 542.004 608.51C541.626 611.316 540.992 613.686 540.142 615.688V555.64C549.593 555.463 558.996 556.655 568.399 558.507C575.235 559.853 576.526 557.909 574.028 551.169C572.838 547.955 571.657 544.736 570.576 541.485C570.459 541.136 570.58 540.708 570.724 540.201C570.797 539.94 570.877 539.658 570.933 539.356C575.805 537.865 579.098 540.822 582.14 543.555C582.329 543.724 582.516 543.892 582.703 544.058C588.029 548.802 592.378 554.513 595.355 561.009C597.26 565.165 600.16 567.259 604.451 568.228C631.347 574.299 657.132 583.732 682.522 594.319C685.116 595.401 688.019 596.529 688.626 592.766C689.245 588.924 690.009 585.103 690.777 581.261C692.321 573.539 693.881 565.738 694.312 557.538C692.388 557.764 690.57 558.39 688.79 559.003C685.311 560.201 681.978 561.349 678.287 559.357C677.143 556.417 678.889 554.488 680.558 552.645C680.857 552.315 681.154 551.987 681.431 551.658C706.431 521.868 708.837 488.459 697.013 452.957C695.163 447.399 692.902 441.985 690.642 436.57C686.779 427.317 682.914 418.061 681.089 408.078C680.093 402.633 676.756 401.989 672.008 403.464C654.555 408.885 636.864 413.364 618.81 416.313C617.507 416.526 616.198 416.696 614.888 416.866C614.281 416.945 613.674 417.024 613.067 417.107C588.519 422.64 564.258 425.003 540.142 424.834V404.62C548.916 404.658 557.687 404.382 566.466 403.644C596.707 401.337 624.894 394.826 652.79 386.728C705.036 371.562 752.727 346.468 799.73 319.8C800.635 319.287 801.54 318.773 802.444 318.26C822.103 307.097 841.798 295.913 863.159 288.228C877.264 283.154 891.743 280.338 906.737 284.731C908.264 285.179 909.72 285.893 911.179 286.609C914.124 288.055 917.082 289.507 920.668 288.785C919.879 280.431 912.262 274.516 902.014 273.722C878.229 271.879 856.696 279.034 835.805 289.51C818.899 297.988 802.317 307.073 785.734 316.158L785.733 316.158C766.499 326.696 747.265 337.233 727.528 346.822C692.586 363.8 656.115 376.751 618.311 385.238C592.691 390.99 566.553 394.877 540.142 394.843V302.212C541.678 302.246 543.207 302.98 544.965 304.307C548.274 306.804 551.795 309.395 556.076 310.192C557.94 307.741 557.063 305.68 556.241 303.749C555.993 303.166 555.749 302.595 555.588 302.028L555.497 301.708C552.537 291.299 552.525 291.256 561.438 284.492C563.479 282.943 565.528 281.405 567.707 279.77L567.722 279.759L567.74 279.746C568.775 278.969 569.84 278.169 570.947 277.337C565.66 274.596 560.592 274.876 555.699 275.147C555.35 275.166 555.001 275.186 554.654 275.204C549.479 275.474 546.704 273.641 545.427 268.571C544.781 266.005 543.723 263.544 542.666 261.082L542.665 261.08C542.194 259.983 541.723 258.886 541.288 257.779C540.87 257.697 540.489 257.649 540.142 257.632V212.014C543.007 211.657 545.302 213.197 547.646 214.77C549.688 216.14 551.766 217.534 554.289 217.718C555.005 215.168 554.103 212.777 553.221 210.44C552.171 207.655 551.15 204.948 552.933 202.143C554.223 200.114 556.187 198.707 558.197 197.268C560.585 195.558 563.039 193.801 564.504 190.897C561.579 189.113 558.366 188.793 555.647 188.997C548.656 189.521 545.603 186.136 544.056 179.895C544.004 179.689 543.954 179.478 543.903 179.266C543.356 176.978 542.743 174.414 540.142 172.913V145.129C544.733 144.801 549.323 144.373 553.869 143.7C554.07 143.671 554.28 143.642 554.497 143.613C556.81 143.301 559.831 142.894 559.418 139.694C558.995 136.416 556.743 133.996 552.721 134.177C548.515 134.366 544.324 134.294 540.142 134.07V118.772ZM612.839 852.751C612.865 850.016 612.891 847.281 612.897 844.546C612.895 817.767 612.895 792.278 612.895 765.39C598.553 776.034 584.77 784.296 570.312 791.386C567.37 792.829 567.185 795.164 566.988 797.657C566.968 797.901 566.949 798.147 566.927 798.393C565.645 812.656 565.837 826.938 566.03 841.22C566.127 848.418 566.224 855.615 566.132 862.811C565.953 876.852 565.99 890.897 566.027 904.941C566.042 910.883 566.058 916.825 566.057 922.766V922.779C566.057 925.562 566.056 928.355 567.822 931.645C570.798 929.251 573.702 926.777 576.595 924.311C583.04 918.82 589.434 913.371 596.471 908.945C611.13 899.723 613.314 886.231 612.891 870.977C612.723 864.907 612.781 858.831 612.839 852.755V852.751ZM684.815 705.131C683.036 706.949 681.257 708.767 679.478 710.585C678.587 711.491 677.808 712.377 677.077 713.21C675.675 714.806 674.449 716.202 672.94 717.147C664.065 722.705 662.272 730.63 662.427 740.65C662.643 754.552 662.526 768.456 662.409 782.362V782.364C662.26 800.012 662.111 817.661 662.642 835.308C662.659 835.853 662.631 836.407 662.604 836.967C662.516 838.748 662.424 840.602 663.718 842.493C667.112 841.149 669.375 838.446 671.551 835.847C671.76 835.597 671.968 835.349 672.177 835.102C677.312 829.028 682.378 822.895 687.444 816.762C692.633 810.481 697.822 804.2 703.085 797.981C706.374 794.094 707.336 789.967 707.139 784.969C707.053 782.801 706.965 780.632 706.877 778.463L706.876 778.447C705.78 751.465 704.684 724.474 708.389 697.555C708.62 695.882 708.508 694.104 708.222 692.432C707.862 690.334 707.434 687.985 705.106 687.155C702.953 686.388 701.665 687.801 700.424 689.163C700.203 689.406 699.983 689.648 699.76 689.874C694.771 694.953 689.793 700.042 684.815 705.131ZM652.318 276.273C645.315 276.696 640.569 274.611 639.603 267.019C639.175 266.023 638.893 265.048 638.626 264.122C637.99 261.923 637.435 260.003 635.196 258.748C632.812 261.173 631.598 264.203 630.393 267.209C629.954 268.303 629.516 269.395 629.024 270.453C627.196 274.382 624.965 276.477 620.057 275.412C615.996 274.532 611.61 274.619 607.001 275.951C608.469 280.265 611.732 282.519 614.798 284.636C615.488 285.112 616.168 285.582 616.815 286.066C620.853 289.089 621.395 292.106 619.964 296.469C619.112 299.067 618.506 301.745 617.845 304.671C617.536 306.035 617.215 307.453 616.852 308.942C622.049 308.101 625.787 306.123 628.815 303.223C632.152 300.029 634.817 300.309 638.305 303.011C641.399 305.409 644.746 307.942 649.169 307.556C650.318 304.935 649.659 302.273 648.706 300.5C644.733 293.106 648.541 289.009 654.199 285.255C656.114 283.985 657.928 282.564 659.912 281.012C660.861 280.269 661.85 279.495 662.906 278.694C659.684 275.792 656.176 276.022 653.001 276.23C652.772 276.245 652.544 276.26 652.318 276.273ZM627.008 630.842C627.55 631.221 628.091 631.599 628.517 632.072C628.818 632.304 629.06 632.494 629.26 632.65C629.747 633.031 629.988 633.22 630.25 633.37C637.396 637.461 640.929 642.813 637.031 651.216C636.31 652.773 635.394 654.819 636.822 657.17C640.57 657.291 643.516 655.231 645.933 652.59C649.068 649.166 651.978 649.442 655.521 651.91C656.254 652.421 656.975 652.959 657.699 653.5L657.701 653.5C660.227 655.386 662.796 657.304 666.107 658.223C666.751 654.524 665.79 651.084 664.373 648.217C661.328 642.058 664.279 638.649 668.842 635.359C669.543 634.854 670.283 634.394 671.032 633.928C673.206 632.577 675.447 631.184 676.958 628.536C674.06 626.827 670.954 625.981 667.859 626.281C659.768 627.067 655.508 622.872 653.01 615.85C652.487 614.381 651.82 612.963 651.064 611.356C650.69 610.56 650.293 609.718 649.882 608.799C647.798 611.04 646.852 613.784 645.941 616.429C644.93 619.364 643.961 622.176 641.525 624.041C638.871 626.074 635.706 626.136 632.492 626.2C629.809 626.253 627.091 626.306 624.607 627.509C624.703 629.23 625.86 630.039 627.008 630.842ZM582.013 707.561C589.558 701.653 597.148 695.711 605.973 704.524C607.909 705.395 609.074 705.842 610.274 706.302C611.963 703.7 610.953 701.107 610.131 699.321C607.046 692.616 610.206 688.968 615.552 685.788C615.83 685.623 616.112 685.46 616.395 685.295C618.977 683.796 621.722 682.202 623.375 678.283C621.806 678.088 620.305 677.824 618.855 677.569L618.853 677.569C615.771 677.027 612.923 676.527 610.161 676.822C603.985 677.484 601.749 674.328 600.128 669.345C599.858 668.515 599.659 667.651 599.457 666.776C598.889 664.306 598.3 661.747 596.024 659.589C593.914 662.077 593.102 665.026 592.307 667.915C592.063 668.803 591.82 669.684 591.542 670.545C589.951 675.467 587.104 677.964 581.684 677.862C578.861 677.809 576.029 678.153 572.913 678.531C571.443 678.71 569.91 678.896 568.284 679.052C570.4 681.076 572.703 682.595 574.903 684.046C577.822 685.97 580.56 687.776 582.445 690.487C584.415 693.319 583.592 696.197 582.712 699.27C581.97 701.865 581.187 704.599 582.013 707.561ZM715.546 707.09C715.938 709.547 716.33 712.003 716.695 714.463C718.735 733.5 719.383 751.469 719.7 769.851C722.231 769.576 723.111 767.895 723.953 766.288L723.957 766.281C724.008 766.184 724.059 766.086 724.11 765.99C724.161 765.894 724.211 765.8 724.263 765.706C724.981 764.392 725.635 763.03 726.288 761.668C727.6 758.935 728.91 756.205 730.736 753.876C736.154 746.966 734.672 740.683 730.836 733.769C726.578 726.094 722.504 718.197 720.367 709.633C718.444 701.92 719.376 694.134 720.305 686.376L720.305 686.375C720.499 684.753 720.694 683.131 720.861 681.512C720.893 681.205 720.926 680.898 720.958 680.591C721.466 675.801 721.976 670.991 719.843 665.727C712.791 673.028 712.313 681.603 713.198 690.324C713.767 695.934 714.657 701.513 715.546 707.09ZM607.975 602.218C608.786 602.69 609.597 603.163 610.374 603.669C610.791 599.632 610.515 595.856 610.176 592.086C610.021 590.363 608.9 589.376 607.293 589.065C596.627 587.002 586.022 584.702 575.04 580.212C578.409 585.356 580.742 598.115 580.243 606.605C581.36 605.741 582.462 604.901 583.55 604.073C585.949 602.246 588.277 600.474 590.532 598.614C594.763 595.124 598.668 594.487 602.963 598.722C604.393 600.132 606.184 601.175 607.975 602.218ZM736.461 463.034C737.517 461.128 738.559 459.246 739.861 457.574C740.155 457.374 740.456 457.185 740.747 457.003L740.749 457.002C742.331 456.009 743.619 455.2 742.032 453.851C740.014 452.134 737.238 451.66 734.906 453.511C732.495 455.426 731.221 458.262 730.097 461.043C730.028 461.214 729.959 461.385 729.89 461.556C728.448 465.11 726.977 468.739 727.354 473.508C732.048 471.007 734.283 466.969 736.461 463.034Z" fill="#305CDE"/>
<path d="M540.142 467.334C545.854 467.192 551.829 469.757 557.614 476.463C561.975 481.52 567.186 484.242 574.184 481.781C576.891 480.829 579.666 480.076 582.443 479.323C584.646 478.725 586.85 478.127 589.02 477.429C596.283 475.095 603.536 472.729 610.788 470.364L610.805 470.358C620.909 467.062 631.014 463.766 641.145 460.556C647.398 458.574 653.377 459.505 659 463.176C665.887 467.671 672.098 472.953 677.853 478.764C678.135 479.049 678.426 479.331 678.721 479.617C680.648 481.484 682.712 483.485 683.165 487.13C671.122 484.038 659.528 481.592 646.529 485.788L647.459 486.344C657.206 492.171 666.038 497.451 673.553 507.645C672.052 507.656 670.574 507.655 669.119 507.654C658.057 507.645 648.318 507.637 639.589 513.243C645.316 501.842 645.156 501.111 636.254 499.08C636.107 499.509 635.957 499.94 635.806 500.374L635.805 500.378C635.476 501.322 635.144 502.276 634.832 503.237C632.649 509.954 627.333 514.351 620.869 514.768C613.744 515.228 607.968 511.844 604.728 505.292C604.511 504.853 604.346 504.354 604.18 503.853C603.653 502.263 603.118 500.647 600.909 500.861C598.216 501.122 596.261 502.827 595.408 505.798C599.383 511.207 605.1 514.311 611.537 517.806C613.303 518.765 615.124 519.754 616.978 520.827C609.761 522.945 603.53 521.33 597.514 519.771C593.646 518.768 589.867 517.789 585.973 517.839C585.912 523.735 588.883 527.89 592.127 532.428C593.762 534.714 595.466 537.098 596.887 539.85C588.378 535.71 582.137 530.898 575.861 526.057L575.857 526.054C574.763 525.211 573.668 524.367 572.56 523.525C571.53 523.26 570.509 523.212 569.519 523.165C567.62 523.076 565.839 522.993 564.347 521.389C560.56 517.322 556.602 517.394 552.321 522.605C552.076 521.144 551.819 519.805 551.577 518.547L551.576 518.541L551.576 518.538C551.084 515.976 550.656 513.746 550.516 511.498C550.116 505.104 546.52 500.95 541.064 498.796C540.748 498.671 540.441 498.572 540.142 498.496V467.334Z" fill="#305CDE"/>
<path d="M327.611 536.355C320.159 518.767 315.568 500.96 314.095 482.387C313.736 477.869 311.95 475.209 307.187 473.663C263.911 459.616 226.261 436.072 193.343 404.888C177.861 390.222 163.19 374.8 152.575 356.004C143.038 339.119 136.086 321.42 136.102 301.744C136.127 269.146 157.816 251.3 190.999 253.949C214.063 255.789 233.988 265.557 253.683 276.119C283.809 292.275 313.162 309.868 343.951 324.797C346.782 326.17 349.447 328.173 353.283 328.127C356.658 320.833 356.785 312.794 357.905 305.089C363.649 265.565 371.397 226.404 378.639 187.148C380.562 176.724 385.327 167.63 391.086 159.051C400.567 144.926 410.877 131.355 424.103 120.489C437.654 109.354 453.52 106.3 470.774 108.26C486.395 110.034 501.518 114.201 516.888 117.145C535.948 120.796 554.483 117.856 573.202 115.007C587.183 112.879 600.897 109.268 615.181 108.687C633.275 107.95 648.769 113.321 661.176 126.372C671.245 136.963 681 147.903 690.208 159.245C699.046 170.134 701.27 183.71 703.427 197.142C709.314 233.81 715.224 270.474 721.146 307.136C721.967 312.213 722.894 317.273 723.805 322.335C724.633 326.935 727.066 327.868 731.174 325.765C749.357 316.459 767.683 307.442 785.567 297.543C812.835 282.449 839.929 266.958 869.95 257.632C882.049 253.873 894.406 252.033 906.853 254.147C934.232 258.794 948.368 280.04 944.458 308.409C941.764 327.957 933.276 344.66 922.333 360.675C906.797 383.412 888.665 403.773 866.882 420.47C838.617 442.136 808.48 460.783 774.032 471.331C768.333 473.076 765.842 476.012 765.142 482.64C762.549 507.198 756.144 530.838 743.125 552.127C735.761 564.169 726.747 574.884 713.166 580.47C709.859 581.831 708.682 583.825 708.691 587.319C708.704 592.377 708.186 597.436 707.859 603.1C713.223 600.869 718.024 597.357 722.978 597.127C733.417 596.643 736.895 590.675 740.995 582.145C752.075 559.096 770.843 544.174 795.53 537.214C816.656 531.259 838.561 529.094 859.995 524.606C861.396 524.312 862.932 523.799 864.386 524.699C865.825 526.563 865 528.43 864.324 530.193C855.927 552.094 847.307 573.875 832.408 592.456C818.484 609.819 800.676 619.732 778.29 621.027C776.206 621.148 773.933 620.905 772.82 623.324C773.77 625.873 776.025 625.137 777.79 625.474C796.984 629.134 813.834 636.687 825.329 653.486C828.482 658.093 832.21 662.302 835.531 666.8C842.707 676.52 851.411 684.247 862.839 688.684C865.156 689.584 867.806 690.239 870.101 694C847.944 706.854 824.447 709.494 799.744 706.108C773.916 702.566 755.44 687.903 740.582 665.704C738.386 677.811 736.394 688.271 734.637 698.771C734.063 702.199 734.863 705.463 736.467 708.72C740.548 717.01 743.918 725.66 748.195 733.841C751.841 740.816 751.573 747.258 748.114 754.07C738.645 772.719 727.86 790.566 715.057 807.095C676.006 857.508 630.076 901.106 581.081 941.634C568.82 951.776 556.569 961.914 543.212 970.657C539.685 972.966 537.389 972.797 534.135 970.372C488.332 936.242 445.384 898.888 406.106 857.377C380.933 830.773 357.196 803.02 338.425 771.378C324.716 748.268 324.753 748.244 334.006 723.37C334.605 721.758 334.954 719.902 335.993 718.628C346.529 705.718 344.128 691.196 340.692 676.935C336.883 661.127 341.995 645.768 341.865 630.176C341.836 626.714 344.481 623.889 347.039 621.494C351.615 617.208 356.381 612.751 362.302 610.879C370.282 608.357 370.32 603.796 369.765 596.51C368.983 586.246 365.042 580.219 356.331 574.37C342.96 565.393 334.493 551.495 327.611 536.355ZM631.563 642.714C630.029 642.963 629.292 641.853 628.422 640.917C627.002 639.39 625.343 638.326 623.434 639.972C621.744 641.43 621.933 643.416 622.682 645.302C625.196 651.632 628.744 648.606 632.223 647.384C631.782 650.344 631.258 653.295 630.937 656.268C630.785 657.684 630.503 659.123 632 660.354C636.327 663.913 648.546 664.288 653.783 661.982C660.109 659.196 665.476 651.895 674.061 657.048C675.605 657.975 678.754 656.862 680.909 656.033C695.794 650.313 708.516 641.715 717.513 628.226C715.636 625.644 712.968 625.126 710.609 624.395C688.444 617.53 667.834 606.591 645.573 599.922C614.543 590.627 583.635 580.959 551.672 575.21C547.818 574.516 546.396 575.18 545.806 579.313C544.341 589.589 544.827 599.888 544.704 610.179C544.68 612.251 545.385 614.395 546.075 616.394C546.677 618.14 548.138 619.223 550.099 618.911C552.398 618.545 553.092 616.827 553.301 614.708C554.286 604.724 556.306 603.888 565.72 607.382C574.214 610.534 582.667 613.846 592.04 614.397C611.061 615.515 622.616 627.889 631.563 642.714ZM467.216 417.107C465.301 416.845 463.38 416.625 461.473 416.313C443.419 413.364 425.728 408.885 408.275 403.464C403.528 401.989 400.19 402.633 399.194 408.078C396.3 423.903 388.283 437.902 383.27 452.957C371.446 488.459 373.852 521.868 398.852 551.658C400.675 553.83 403.345 555.891 401.996 559.357C396.417 562.368 391.656 558.205 385.971 557.538C386.616 569.817 389.793 581.201 391.658 592.766C392.264 596.529 395.167 595.401 397.761 594.319C423.151 583.732 448.936 574.299 475.832 568.228C480.123 567.259 483.023 565.165 484.928 561.009C487.905 554.513 492.254 548.802 497.581 544.058C500.784 541.205 504.177 537.772 509.35 539.356C509.516 540.246 509.883 540.956 509.707 541.485C508.626 544.736 507.445 547.955 506.255 551.169C503.757 557.909 505.048 559.853 511.884 558.507C525.893 555.748 539.9 554.454 554.072 556.967C560.337 558.078 566.592 559.243 573.168 560.441C574.435 552.923 568.364 547.598 568.938 540.721C572.637 539.3 575.294 540.901 577.745 543.161C583.179 548.169 587.869 553.748 590.34 560.835C591.418 563.924 593.029 565.466 596.5 566.329C621.937 572.653 646.993 580.272 671.472 589.699C676.967 591.815 682.39 594.121 688.794 596.726C691.104 581.14 693.244 566.705 695.346 552.516C690.673 550.758 687.604 554.359 684.138 552.819C683.176 549.775 685.251 547.895 686.696 545.897C689.363 542.21 691.465 538.234 693.227 534.067C701.663 514.112 702.29 493.212 700.834 472.025C700.38 465.421 698.547 459.488 694.862 453.936C692.354 450.158 687.573 449.483 684.733 445.701C688.198 441.569 687.619 437.051 685.878 432.446C683.127 425.17 681.674 417.607 680.584 409.921C679.554 402.652 677.768 401.476 670.548 403.768C652.894 409.375 634.772 412.844 616.655 416.494C567.233 426.448 517.834 428.516 467.216 417.107ZM687.577 214.1C686.323 203.865 684.736 193.684 682.357 183.645C680.899 177.491 678.249 171.788 674.235 166.958C665.717 156.709 656.712 146.892 647.523 137.22C637.08 126.228 624.386 123.331 609.947 124.495C593.414 125.827 577.434 130.498 560.964 132.191C549.85 133.333 538.76 134.681 527.562 134.177C523.54 133.996 521.288 136.416 520.865 139.694C520.413 143.194 524.068 143.353 526.414 143.7C531.716 144.485 537.079 144.937 542.432 145.284C551.582 145.878 560.33 143.31 569.143 141.467C574.436 140.36 577.288 141.192 577.078 147.554C576.902 152.879 577.606 158.274 578.341 163.58C581.381 185.54 584.593 207.42 598.077 226.166C602.647 232.519 603.676 232.864 608.73 226.537C609.401 225.697 610.069 224.855 610.729 224.006C614.174 219.572 617.904 219.081 621.615 223.388C624.06 226.226 626.7 226.495 630.028 226.888C638.488 227.886 643.074 220.525 649.927 217.913C660.503 213.881 662.747 212.747 670.312 221.387C675.251 227.028 680.014 226.819 684.447 220.705C685.691 218.99 687.373 217.487 687.577 214.1ZM513.817 403.644C531.633 405.141 549.412 404.738 567.263 403.667C606.573 401.31 643.713 389.984 680.301 376.704C731.643 358.068 778.072 329.224 826.623 304.798C844.746 295.681 863.003 287.272 882.967 283.115C901.904 279.172 913.793 284.082 923.848 299.951C926.811 286.378 916.091 273.898 900.674 272.386C885.659 270.914 871.601 274.627 857.855 279.778C827.124 291.295 799.283 308.656 770.217 323.548C730.821 343.733 691.7 364.475 648.792 376.839C614.168 386.816 579.22 394.377 543.075 394.823C515.666 395.162 488.54 391.203 461.972 385.238C424.168 376.751 387.697 363.8 352.755 346.822C316.002 328.966 280.993 307.822 244.478 289.51C223.587 279.034 202.054 271.879 178.269 273.722C168.021 274.516 160.404 280.431 159.615 288.785C164.979 289.864 168.937 286.082 173.546 284.731C188.54 280.338 203.019 283.154 217.124 288.228C239.468 296.267 259.989 308.133 280.553 319.8C327.556 346.468 375.247 371.562 427.493 386.728C455.389 394.826 483.576 401.337 513.817 403.644ZM701.329 728.964C701.97 723.728 701.304 718.062 705.531 713.698C719.69 729.314 716 748.933 718.806 767.583C724.778 763.995 726.48 758.926 729.408 754.833C734.212 748.118 735.611 741.612 729.91 734.419C727.157 730.945 725.748 726.436 723.484 722.538C716.714 710.883 714.675 698.783 717.776 685.401C719.527 677.842 721.405 669.884 719.456 660.566C711.276 673.154 700.515 681.626 691.821 692.006C678.817 707.533 666.879 724.089 650.202 736.24C645.286 739.822 645.779 746.408 650.5 750.032C653.557 749.407 653.9 743.613 658.138 745.655C662.02 747.527 661.025 751.659 661.086 754.901C661.575 780.869 661.842 806.84 662.276 832.809C662.316 835.211 661.223 837.972 663.586 839.994C666.163 839.855 667.275 837.789 668.764 836.343C678.96 826.431 686.905 814.532 696.751 804.348C702.261 798.651 704.71 792.613 704.128 784.715C702.786 766.524 700.874 748.352 701.329 728.964ZM467.386 844.546C467.404 853.357 467.636 862.174 467.392 870.977C466.969 886.231 469.153 899.723 483.812 908.945C494.008 915.359 502.855 923.918 512.461 931.645C514.229 928.35 514.226 925.554 514.226 922.766C514.223 902.781 514.405 882.793 514.151 862.811C513.877 841.338 515.285 819.844 513.356 798.393C513.108 795.629 513.201 792.97 509.971 791.386C495.513 784.296 481.73 776.034 467.388 765.39C467.388 792.278 467.388 817.767 467.386 844.546ZM611.096 825.183C611.096 805.767 611.096 786.351 611.096 766.995C608.061 766.741 606.649 768.254 605.003 769.172C593.921 775.348 582.983 781.801 571.719 787.621C567.824 789.634 566.579 791.958 566.592 796.103C566.726 838.481 566.696 880.86 566.786 923.239C566.79 925.196 565.875 927.61 568.958 929.405C571.792 927.232 574.933 925.041 577.829 922.563C587.301 914.456 596.521 906.045 606.186 898.179C609.755 895.275 611.122 892.291 611.087 887.786C610.924 867.35 611.065 846.912 611.096 825.183ZM400.805 710.585C394.046 703.68 387.295 696.767 380.523 689.874C379.05 688.375 377.714 686.251 375.177 687.155C372.849 687.985 372.421 690.334 372.061 692.432C371.775 694.104 371.664 695.882 371.894 697.555C375.897 726.643 374.295 755.816 373.144 784.969C372.947 789.967 373.909 794.094 377.198 797.981C387.599 810.271 397.712 822.806 408.106 835.102C410.483 837.914 412.845 841.02 416.565 842.493C418.266 840.006 417.572 837.585 417.641 835.308C418.591 803.755 417.367 772.195 417.856 740.65C418.011 730.63 416.218 722.705 407.343 717.147C405.047 715.709 403.406 713.226 400.805 710.585ZM736.731 512.277C735.039 520.259 731.188 527.143 725.847 533.206C723.638 535.714 721.617 539.458 717.578 538.145C714.071 537.006 715.438 532.977 714.485 530.286C714.376 529.977 713.907 529.795 713.017 529.086C706.96 540.37 709.692 552.526 707.597 564.693C715.276 562.788 719.981 558.308 723.862 553.272C746.198 524.29 752.065 490.937 749.083 455.4C748.737 451.286 746.265 448.164 742.125 446.929C737.523 445.556 733.48 447.135 730.356 450.406C721.351 459.837 719.616 471.694 718.924 484.47C721.831 483.243 722.632 481.156 723.874 479.488C728.231 473.633 732.425 467.648 736.983 461.955C738.524 460.03 740.995 458.012 743.704 459.779C746.046 461.306 745.506 464.237 744.657 466.314C738.765 480.733 739.355 496.221 736.731 512.277ZM538.995 257.779C537.584 261.369 535.79 264.862 534.856 268.571C533.579 273.641 530.804 275.474 525.629 275.204C520.413 274.932 515.001 274.4 509.336 277.337C512.786 279.931 515.825 282.199 518.845 284.492C527.848 291.324 527.745 291.299 524.695 302.028C524 304.471 521.779 307.001 524.207 310.192C528.489 309.395 532.009 306.804 535.318 304.307C538.8 301.679 541.387 301.373 544.902 304.241C548.124 306.871 551.725 309.328 556.31 309.765C558.336 305.339 556.673 301.375 555.373 297.701C553.641 292.805 555.002 289.868 558.973 286.751C562.823 283.729 567.994 281.872 570.245 276.563C569.086 276.066 568.339 275.539 567.541 275.443C565.63 275.214 563.695 275.109 561.768 275.092C549.339 274.984 549.52 274.919 544.662 263.617C543.646 261.255 544.326 256.73 538.995 257.779ZM649.946 275.135C643.73 276.551 641.174 273.294 639.566 267.778C638.368 263.672 637.884 258.923 633.519 255.846C630.182 258.438 629.717 262.305 628.932 265.624C627.451 271.89 624.23 274.651 617.661 273.907C613.503 273.435 609.294 274.053 605.079 275.869C608.049 280.067 611.957 282.46 615.411 285.265C619.379 288.488 620.932 291.663 619.055 296.916C617.975 299.937 615.812 303.509 617.913 307.29C622.214 306.708 625.447 304.46 628.577 302.362C632.219 299.922 634.924 300.121 638.269 303.007C641.356 305.671 644.845 308.276 649.358 308.175C650.586 304.59 649.148 301.616 648.138 299.025C645.689 292.743 647.698 289.099 653.318 286.083C657.356 283.916 661.44 281.476 664.72 277.332C659.921 275.414 655.518 275.094 649.946 275.135ZM543.61 651.438C547.053 653.408 549.323 657.338 553.672 657.689C555.369 656.299 553.968 653.229 556.402 652.753C563.411 651.38 561.715 645.872 560.74 642.036C559.404 636.774 560.884 633.434 564.707 630.275C565.647 629.498 567.479 628.914 566.852 626.39C553.964 626.594 540.73 626.701 538.279 608.51C536.469 612.225 535.335 614.955 534.567 617.784C532.933 623.803 529.531 626.829 522.914 626.237C518.597 625.85 514.102 625.627 508.582 627.323C513.36 630.803 517.025 633.706 520.925 636.247C524.932 638.857 525.941 642.015 524.791 646.694C523.947 650.128 522.018 653.729 523.481 658.227C527.288 655.616 530.579 653.602 533.587 651.23C536.712 648.767 539.634 648.183 543.61 651.438ZM440.68 267.019C439.714 274.611 434.968 276.696 427.965 276.273C424.616 276.072 420.832 275.582 417.377 278.694C420.641 281.17 423.253 283.377 426.084 285.255C431.742 289.009 435.55 293.106 431.577 300.5C430.624 302.273 429.965 304.935 431.114 307.556C435.537 307.942 438.884 305.409 441.978 303.011C445.466 300.309 448.131 300.029 451.468 303.223C454.496 306.123 458.234 308.101 463.431 308.942C462.288 304.261 461.568 300.278 460.319 296.469C458.888 292.106 459.43 289.089 463.468 286.066C466.991 283.429 471.484 281.236 473.282 275.951C468.673 274.619 464.287 274.532 460.226 275.412C455.318 276.477 453.088 274.382 451.259 270.453C449.415 266.489 448.339 262.056 445.087 258.748C441.905 260.53 442.124 263.657 440.68 267.019ZM451.766 632.072C453.094 630.6 455.535 630.043 455.676 627.509C450.219 624.866 443.629 627.772 438.758 624.041C434.127 620.495 434.798 613.526 430.401 608.799C429.159 611.571 428.055 613.653 427.274 615.85C424.775 622.872 420.515 627.067 412.424 626.281C409.329 625.981 406.223 626.827 403.325 628.536C405.356 632.096 408.706 633.387 411.441 635.359C416.004 638.649 418.955 642.058 415.91 648.217C414.493 651.084 413.532 654.524 414.177 658.223C418.436 657.04 421.47 654.203 424.762 651.91C428.305 649.442 431.215 649.166 434.35 652.59C436.767 655.231 439.713 657.291 443.461 657.17C444.889 654.819 443.973 652.773 443.252 651.216C439.354 642.813 442.887 637.461 450.033 633.37C450.404 633.158 450.731 632.87 451.766 632.072ZM579.871 676.512C575.711 676.917 571.53 677.226 567.133 678.848C570.745 684.275 577.269 685.714 580.308 690.704C583.674 696.229 577.56 701.557 579.557 708.824C589.145 697.57 599.008 699.932 608.627 708.426C610.012 700.956 604.116 695.318 607.72 689.561C610.959 684.387 617.085 681.863 621.609 676.964C614.897 676.414 608.596 676.993 603.103 675.155C596.923 673.088 597.756 664.471 592.688 660.124C589.896 663.733 589.144 667.817 587.575 671.492C586.283 674.518 584.599 676.703 579.871 676.512ZM522.676 740.943C527.758 743.274 529.587 746.546 526.847 752.086C525.615 754.576 524.547 757.658 526.287 761.453C528.969 759.464 531.659 757.788 533.965 755.69C538.148 751.885 541.797 751.323 545.928 755.958C548.501 758.846 551.793 761.185 556.603 761.823C555.641 757.392 555.215 753.74 554.023 750.359C552.491 746.012 553.462 743.275 557.329 740.626C560.691 738.322 564.88 736.532 567.151 730.484C553.259 733.096 544.118 728.281 540.407 713.823C536.734 729.901 525.491 733.041 510.592 731.849C514.885 736.427 518.401 738.424 522.676 740.943ZM474.31 704.524C483.135 695.711 490.725 701.653 498.27 707.561C500.074 701.09 494.205 695.71 497.838 690.487C501.144 685.733 507.076 683.762 511.999 679.052C506.927 678.566 502.755 677.784 498.599 677.862C493.179 677.964 490.332 675.467 488.741 670.545C487.557 666.88 487.017 662.841 484.259 659.589C481.176 662.512 481.188 666.17 480.155 669.345C478.534 674.328 476.298 677.484 470.122 676.822C466.06 676.387 461.813 677.675 456.908 678.283C458.743 682.633 461.921 684.118 464.731 685.788C470.077 688.968 473.237 692.616 470.152 699.321C469.33 701.107 468.32 703.7 470.009 706.302C471.209 705.842 472.374 705.395 474.31 704.524ZM797.48 552.904C787.718 556.079 778.708 560.495 771.17 567.862C778.448 574.168 779.48 574.308 787.242 571.715C797.193 568.391 807.188 565.199 817.181 562.002C819.156 561.37 821.182 560.231 823.291 561.758C824.494 565.557 819.527 567.955 820.878 571.908C825.312 572.463 828.408 570.788 830.764 567.24C834.337 561.86 837.425 556.229 839.709 550.197C841.688 544.973 840.363 543.35 834.818 544.476C822.649 546.945 810.398 549.075 797.48 552.904ZM566.199 190.628C562.888 186.081 558.507 189.098 554.763 189.371C549.645 189.744 546.642 188.14 544.845 183.343C543.525 179.822 543.073 175.853 540.4 172.771C537.326 174.382 536.848 177.392 536.227 179.895C534.68 186.136 531.627 189.521 524.636 188.997C521.917 188.793 518.704 189.113 515.779 190.897C518.478 196.244 524.527 197.703 527.35 202.143C530.63 207.302 524.425 212.128 525.994 217.718C531.586 217.311 534.993 210.956 540.665 212.099C546.107 213.196 549.774 218.447 555.658 219.505C555.707 218.717 556.001 217.96 555.745 217.531C548.749 205.789 554.788 198.617 564.379 192.647C564.915 192.313 565.323 191.775 566.199 190.628ZM363.588 714.463C364.781 706.419 366.266 698.405 367.085 690.324C367.97 681.603 367.492 673.028 360.44 665.727C358.171 671.329 358.893 676.416 359.422 681.512C360.392 690.874 362.242 700.306 359.916 709.633C357.78 718.197 353.705 726.094 349.447 733.769C345.611 740.683 344.129 746.966 349.547 753.876C352.283 757.365 353.861 761.755 356.02 765.706C356.982 767.465 357.744 769.543 360.583 769.851C360.9 751.469 361.548 733.5 363.588 714.463ZM665.202 351.138C640.831 356.017 615.964 356.926 591.173 359.582C591.882 363.535 594.371 364.898 596.879 366.059C607.108 370.792 617.689 370.313 628.374 367.994C644.398 364.517 659.628 358.638 674.802 352.607C675.931 352.158 677.951 352.243 677.742 349.886C673.793 349.207 670.037 349.988 665.202 351.138ZM469.909 603.669C472.403 602.044 475.243 600.77 477.32 598.722C481.615 594.487 485.52 595.124 489.751 598.614C493.028 601.317 496.459 603.835 500.04 606.605C499.541 598.115 501.874 585.356 505.243 580.212C494.261 584.702 483.656 587.002 472.99 589.065C471.383 589.376 470.262 590.363 470.107 592.086C469.768 595.856 469.492 599.632 469.909 603.669ZM780.682 646.611C780.532 646.758 780.294 646.886 780.254 647.06C780.214 647.235 780.307 647.56 780.446 647.642C788.026 652.112 795.372 656.865 801.454 663.366C804.086 666.179 807.08 665.202 809.426 662.988C811.98 660.577 809.527 658.714 808.027 657.047C804.553 653.184 800.546 649.928 795.673 648.024C791.073 646.226 786.601 642.46 780.682 646.611ZM340.422 457.574C344.412 462.697 345.961 469.795 352.929 473.508C353.325 468.509 351.689 464.764 350.186 461.043C349.062 458.262 347.788 455.426 345.377 453.511C343.045 451.66 340.269 452.134 338.251 453.851C336.372 455.449 338.525 456.289 340.422 457.574ZM741.945 613.06C737.269 611.677 732.61 610.592 727.931 613.491C732.434 619.693 742.711 622.5 748.442 619.154C747.398 616.449 745.547 614.544 741.945 613.06Z" fill="#305CDE"/>
<path d="M488.595 132.185H591.405V225.204H488.595V132.185Z" fill="#305CDE"/>
</svg>
