<svg width="1000" height="1000" viewBox="0 0 1000 1000" fill="none" xmlns="http://www.w3.org/2000/svg">
<path d="M500.5 164.134C500.233 164.133 499.967 164.132 499.7 164.131L497.119 164.127C489.644 164.116 482.321 164.502 475.088 165.206C470.453 165.193 465.903 165.416 461.269 166.178L458.78 166.628C445.864 168.899 445.863 168.899 414.914 176.915L412.119 177.642C412.119 176.243 412.119 175.871 411.543 175.04C410.337 172.784 406.604 168.502 395.05 155.252L395.048 155.249L392.146 151.923C386.367 145.197 380.285 138.94 373.803 132.888L368.27 127.744C366.491 126.093 364.715 124.44 362.951 122.774C355.205 115.434 347.166 108.567 338.81 101.93L336.985 100.485C330.873 95.6372 324.681 90.9268 318.261 86.4945C316.258 85.1284 314.256 83.7593 312.257 82.3867C299.063 72.6493 284.601 65.0229 269.888 57.866L268.033 56.9655C267.179 56.5489 266.326 56.1326 265.472 55.7167L264.406 55.1979L260.989 53.5609C257.454 51.8664 254.319 50.6031 250.438 50C249.826 51.2273 249.186 52.4415 248.513 53.6369C231.208 84.0663 218.226 116.713 209.419 150.596L208.592 153.828C197.768 195.405 195.073 239.9 199.727 282.587L200.032 285.28C201.382 297.467 203.075 309.591 204.907 321.715C205.383 324.777 205.854 327.838 206.282 330.908L206.69 333.86C207.865 340.976 208.294 345.705 204.296 351.903C203.233 353.431 202.2 354.981 201.192 356.547L199.564 359.106C165.651 411.63 139.502 475.631 141.067 538.658C143.194 538.658 144.131 538.658 145.046 538.512C145.767 538.397 146.474 538.192 147.739 537.824L150.815 536.752L153.921 535.681L156.284 534.847C156.123 542.332 156.635 549.744 157.231 557.199L157.413 559.435C158.571 573.693 160.443 587.634 163.325 601.66L163.892 604.383C170.909 639.245 184.042 673.34 201.658 704.167L202.886 706.306C212.102 722.524 222.346 738.432 233.94 753.048C235.103 754.502 236.264 755.958 237.399 757.434C242.664 764.343 248.102 770.949 254.044 777.287C256.051 779.42 258.046 781.556 259.979 783.757C264.976 789.592 270.237 795.053 276.058 800.073C278.054 801.79 279.975 803.52 281.835 805.386C297.433 821.442 315.719 835.78 334.157 848.408L336.093 849.724C336.357 849.906 336.615 850.086 336.868 850.265C336.996 850.355 337.122 850.444 337.248 850.533L337.261 850.542C338.397 851.345 339.459 852.095 340.581 852.687C341.989 853.543 343.229 853.951 345.545 853.951L344.222 852.526L342.453 850.677C341.429 849.591 340.558 848.734 339.621 848.067C336.614 845.035 333.655 841.959 330.803 838.77C328.546 836.218 326.279 833.683 323.967 831.179C318.999 825.822 314.174 820.401 309.605 814.692L307.502 812.039C292.662 793.852 280.011 773.903 269.782 752.787L268.509 750.123C263.67 740.005 259.393 729.735 255.926 719.063L255.194 716.784C250.116 701.148 246.73 685.558 244.112 669.337L243.781 667.252H241.879C238.812 671.104 236.434 674.927 234.482 679.443L233.676 681.421C230.723 688.587 229.117 695.679 228.003 703.333L227.613 706.306C213.933 683.698 202.681 659.68 194.243 634.629L193.375 632.007C184.827 606.236 180.392 579.863 178.645 552.827C178.431 549.316 178.211 545.816 177.833 542.319C177.387 538.512 176.992 534.764 177.222 530.929C178.935 526.889 179.804 524.841 181.088 523.101C182.408 521.314 184.166 519.852 187.731 516.888L187.732 516.887L187.958 516.705C189.705 515.308 191.444 513.917 193.133 512.449C196.157 509.754 199.22 507.13 202.372 504.587L203.837 503.413C224.205 486.986 251.966 470.198 278.97 470.074L277.34 472.113L275.166 474.837C264.95 487.604 256.113 501.008 248.674 515.584C247.641 517.626 246.604 519.664 245.543 521.691C244.818 523.07 244.097 524.451 243.381 525.835L242.354 527.822L241.379 529.666C239.006 534.339 237.233 538.782 238.829 543.964L240.155 546.397L241.771 549.381C242.847 551.286 243.915 553.193 244.961 555.114C257.17 577.594 272.223 598.271 288.83 617.693C289.337 618.276 289.844 618.86 290.35 619.443L291.334 620.577C295.608 625.602 300.056 630.386 304.711 635.06L307.146 637.485C321.017 651.325 335.37 664.711 350.783 676.833L353.153 678.682C353.62 679.055 354.086 679.428 354.552 679.801L354.553 679.802C358.813 683.21 363.071 686.618 367.649 689.594C368.832 690.34 370.059 691.07 371.3 691.808L371.301 691.809L371.305 691.811L371.339 691.832L371.342 691.834L371.351 691.839C376.898 695.14 382.692 698.587 385.905 704.163C390.655 714.045 397.211 723.627 405.235 731.121L407.363 732.978C416.084 740.657 425.239 746.245 436.456 749.472C455.235 753.243 476.364 746.64 492.186 736.431C493.696 735.386 494.406 734.896 495.139 734.444C495.788 734.044 496.455 733.674 497.714 732.978L497.739 732.974L497.764 732.972L497.766 732.971L497.767 732.971L497.771 732.971L497.773 732.971L497.776 732.97L497.778 732.97L497.783 732.97L497.785 732.969L497.79 732.969L497.791 732.969L497.797 732.968L497.798 732.968L497.804 732.968L497.805 732.967L497.812 732.967L497.814 732.967L497.822 732.966L497.824 732.966L497.836 732.964L497.894 732.959L497.896 732.958L497.897 732.958C499.08 732.859 499.875 732.792 500.5 732.816V720.797C483.243 720.468 467.902 715.702 454.34 703.769C444.725 694.374 437.936 683.106 437.5 669.395C437.601 661.896 440.437 655.172 445.633 649.762C451.037 644.723 457.032 642.478 464.13 640.878L466.686 640.28C469.1 639.726 471.517 639.197 473.937 638.675L477.121 637.953C484.78 636.487 492.633 635.997 500.5 636.218V505.931C500.338 505.929 500.175 505.927 500.013 505.926L498.07 505.914C485.63 505.779 473.954 507.128 462.18 511.362L460.088 512.165C444.865 517.932 431.011 526.638 419.742 538.494L417.825 540.563C387.93 571.593 372.741 615.209 363.303 656.669L362.664 659.631H360.761C343.986 645.147 330.669 626.109 320.16 606.751C294.332 557.657 288.858 506.646 305.078 453.651L305.6 451.976L305.598 451.975C304.087 451.622 303.069 451.383 302.039 451.221C299.916 450.888 297.743 450.877 291.089 450.846L287.352 450.844C280.054 450.774 273.039 450.722 265.903 452.387L263.754 452.928C230.595 460.395 200.422 478.044 175.364 500.853C171.61 504.341 167.804 507.725 163.892 511.034C162.74 481.734 177.599 445.678 190.682 420.128C191.559 418.426 192.429 416.722 193.277 415.004C201.03 399.134 209.518 383.703 218.519 368.509C228.276 352.33 230.766 342.276 227.292 323.983C219.236 281.761 216.287 237.597 222.418 194.884L222.858 191.93C228.645 151.401 241.809 114.176 259.949 77.6239C262.065 77.4717 262.926 77.4097 263.721 77.6126C264.267 77.7521 264.781 78.0165 265.648 78.4627L267.651 79.6444L269.925 80.9685C271.507 81.9082 273.096 82.8376 274.69 83.7564C293.989 94.8762 313.497 106.686 330.149 121.62C332.161 123.49 334.181 125.291 336.326 127.006C341.746 131.281 346.745 135.861 351.644 140.657L351.251 141.445L371.223 161.448L371.412 160.881C377.017 166.986 382.402 173.272 387.629 179.785L388.733 181.187C389.553 182.228 390.374 183.269 391.195 184.309L395.356 189.429C396.535 190.874 397.688 192.34 398.804 193.835C399.259 194.915 399.476 195.429 399.728 195.926C399.956 196.374 400.212 196.808 400.699 197.633L400.706 197.645C403.284 199.059 405.294 199.535 408.221 199.803L411.108 199.788C414.139 199.804 416.577 199.641 419.482 198.754C429.567 195.145 440.188 192.587 450.636 190.262L452.836 189.787C458.176 188.597 463.513 187.75 468.867 187.162C474.366 187.144 479.864 187.13 485.363 187.121C487.835 187.117 490.308 187.112 492.78 187.107C495.353 187.099 497.927 187.09 500.5 187.084V164.134Z" fill="#2563EB"/>
<path d="M500.5 771.994C490.667 772.268 481.121 769.396 472.078 764.321C462.578 758.695 455.596 755.882 444.462 755.876C441.289 755.889 438.403 755.557 435.301 754.827L432.091 753.934C438.065 763.86 446.014 771.471 455.31 778.294C469.091 787.932 484.333 792.751 500.5 792.578V771.994Z" fill="#2563EB"/>
<path d="M500.5 926.209C498.788 925.906 497.486 925.281 495.781 924.447L491.341 921.923L488.798 920.451C462.669 905.399 437.941 888.379 414.663 869.211C413.499 868.25 412.334 867.292 411.167 866.334C404.577 861.059 398.277 855.596 392.129 849.814C389.873 847.691 387.621 845.579 385.288 843.54C373.438 833.474 362.802 821.801 352.618 810.074C350.81 807.976 348.975 805.921 347.09 803.89C340.119 796.401 333.574 788.615 327.147 780.653L325.572 778.7C306.535 755.278 289.323 729.72 275.801 702.63C275.697 702.287 275.56 701.906 275.377 701.402L275.377 701.4L273.214 696.82L272.016 694.34C271.77 693.814 271.53 693.291 271.293 692.773C270.364 690.748 269.468 688.795 268.351 686.971C267.412 685.324 266.324 683.968 264.738 682.523L264.704 682.492C264.704 683.484 264.704 683.96 264.772 684.425C264.834 684.854 264.954 685.275 265.183 686.082L266.594 690.334L267.379 692.673C268.268 695.369 269.189 698.027 270.179 700.659C270.87 702.603 271.57 704.544 272.279 706.483L273.264 709.164C289.498 753.451 313.679 796.238 345.307 831.447L345.612 831.778C347.341 833.653 349.067 835.524 350.726 837.462C355.173 842.657 359.903 847.524 364.743 852.351L366.111 853.713C377.374 864.958 388.911 875.738 401.076 886.001L402.608 887.291C426.508 907.427 452.234 925.407 479.506 940.656L482.259 942.181C482.626 942.386 482.994 942.592 483.363 942.798L483.394 942.816C488.255 945.535 493.209 948.308 498.539 949.935C499.251 950.013 499.897 950.019 500.5 949.962V926.209Z" fill="#2563EB"/>
<path d="M454.916 420.541C452.67 402.037 440.962 387.644 427.038 376.01C410.392 363.661 389.611 359.284 369.321 363.389C369.321 364.178 369.321 364.641 369.442 365.069C369.612 365.674 370.023 366.21 371.015 367.504C382.408 381.285 391.315 398.829 396.902 415.779C380.956 407.575 362.904 402.471 344.85 403.158L341.74 403.396C323.761 404.663 302.962 410.697 290.383 424.352C313.904 418.938 337.697 415.937 361.558 421.026C389.498 427.354 420.438 442.569 436.489 467.455C436.559 467.576 436.625 467.693 436.69 467.806L436.784 467.972C438.189 470.445 438.466 470.932 441.601 471.979C451.169 455.547 455.891 439.508 454.916 420.541Z" fill="#2563EB"/>
<path d="M272.247 102.883C286.908 106.128 300.261 119.251 310.9 129.707L310.903 129.71C311.79 130.582 312.658 131.435 313.506 132.262C314.979 133.697 316.467 135.115 317.96 136.529C324.707 143.057 330.462 150.106 336.034 157.638L337.465 159.567C352.66 180.194 356.472 185.368 356.928 190.824C357.081 192.65 356.857 194.509 356.559 196.989C354.898 204.682 350.055 211.064 345.188 217.053C344.004 218.547 342.821 220.041 341.64 221.537L339.796 223.861C327.73 239.174 316.877 254.932 307.145 271.825L305.905 273.971C305.503 274.859 305.02 275.727 304.434 276.611C302.518 280.142 300.758 283.727 299.085 287.372C298.425 288.899 297.738 290.42 297.04 291.947C296.134 289.225 296.136 288.321 296.736 286.118C296.953 285.043 297.28 283.96 297.631 282.794C297.75 282.403 297.871 282.001 297.991 281.588L298.642 279.312C299.248 277.224 299.871 275.146 300.511 273.078L300.845 271.944L300.854 271.976C308.068 248.922 317.409 227.007 329.103 205.847C329.493 205.014 329.9 204.185 330.327 203.36H330.49C331.074 202.324 331.663 201.289 332.258 200.256L333.181 198.598L334.339 196.679L335.083 194.787C333.969 192.333 332.85 190.3 331.397 188.06L330.194 186.137C321.963 173.142 312.259 161.267 301.796 150.018L299.789 147.852C294.007 141.828 287.559 136.877 280.872 131.919L280.357 133.506C278.914 137.9 277.383 142.244 275.739 146.567C269.8 162.244 264.823 178.295 261.33 194.7C260.894 196.723 260.428 198.737 259.96 200.752C254.398 225.607 252.682 251.299 252.341 276.707C237.339 248.754 241.798 203.645 247.585 173.831L248.11 171.024C256.787 125.2 258.645 115.388 264.046 108.276C265.518 106.338 267.252 104.601 269.46 102.39H272.313L272.313 102.393C272.289 102.573 272.267 102.735 272.247 102.883Z" fill="#2563EB"/>
<path d="M386.222 457.502C381.65 454.769 377.661 452.384 372.174 451.976C368.114 456.551 367.838 460.318 368.069 466.361C368.91 474.078 373.2 479.334 378.947 484.146C385.599 488.807 391.82 488.989 399.755 488.172C403.294 486.991 406.012 485.4 408.314 482.457C409.047 479.768 408.938 477.541 408.314 474.837C407.292 473.012 406.569 471.721 405.666 470.574C403.482 467.802 400.241 465.864 389.173 459.247L386.737 457.81L386.222 457.502Z" fill="#2563EB"/>
<path d="M500.5 164.134C500.767 164.133 501.033 164.132 501.3 164.131L503.881 164.127C511.356 164.116 518.679 164.502 525.912 165.206C530.547 165.193 535.097 165.416 539.731 166.178L542.22 166.628C555.136 168.899 555.137 168.899 586.086 176.915L588.881 177.642C588.881 176.243 588.881 175.871 589.457 175.04C590.663 172.784 594.396 168.502 605.95 155.252L605.952 155.249L608.854 151.923C614.633 145.197 620.715 138.94 627.197 132.888L632.73 127.744C634.509 126.093 636.285 124.44 638.049 122.774C645.795 115.434 653.834 108.567 662.189 101.93L664.015 100.485C670.127 95.6372 676.319 90.9268 682.739 86.4945C684.742 85.1284 686.744 83.7593 688.742 82.3867C701.937 72.6493 716.399 65.0229 731.112 57.866L732.967 56.9655C733.82 56.5489 734.674 56.1326 735.528 55.7167L736.594 55.1979L740.011 53.5609C743.546 51.8664 746.681 50.6031 750.562 50C751.174 51.2273 751.814 52.4415 752.487 53.6369C769.792 84.0663 782.774 116.713 791.581 150.596L792.408 153.828C803.232 195.405 805.927 239.9 801.273 282.587L800.968 285.28C799.618 297.467 797.925 309.591 796.093 321.715C795.617 324.777 795.146 327.838 794.718 330.908L794.31 333.86C793.135 340.976 792.706 345.705 796.704 351.903C797.767 353.431 798.8 354.981 799.808 356.547L801.436 359.106C835.349 411.63 861.498 475.631 859.933 538.658C857.806 538.658 856.869 538.658 855.954 538.512C855.233 538.397 854.526 538.192 853.261 537.824L850.185 536.752L847.079 535.681L844.716 534.847C844.877 542.332 844.365 549.744 843.769 557.199L843.587 559.435C842.429 573.693 840.557 587.634 837.675 601.66L837.108 604.383C830.092 639.245 816.958 673.34 799.342 704.167L798.115 706.306C788.898 722.524 778.654 738.432 767.06 753.048C765.897 754.502 764.736 755.958 763.601 757.434C758.336 764.343 752.898 770.949 746.956 777.287C744.949 779.42 742.955 781.556 741.021 783.757C736.024 789.592 730.763 795.053 724.942 800.073C722.946 801.79 721.025 803.52 719.165 805.386C703.567 821.442 685.281 835.78 666.843 848.408L664.907 849.724C664.643 849.906 664.385 850.086 664.132 850.265C664.004 850.355 663.878 850.444 663.752 850.533L663.739 850.542C662.603 851.345 661.541 852.095 660.419 852.687C659.011 853.543 657.771 853.951 655.455 853.951L656.778 852.526L658.547 850.677C659.571 849.591 660.442 848.734 661.379 848.067C664.386 845.035 667.345 841.959 670.197 838.77C672.454 836.218 674.721 833.683 677.033 831.179C682.001 825.822 686.826 820.401 691.395 814.692L693.498 812.039C708.338 793.852 720.989 773.903 731.218 752.787L732.491 750.123C737.33 740.005 741.607 729.735 745.074 719.063L745.806 716.784C750.884 701.148 754.27 685.558 756.888 669.337L757.219 667.252H759.121C762.188 671.104 764.566 674.927 766.518 679.443L767.324 681.421C770.277 688.587 771.883 695.679 772.997 703.333L773.387 706.306C787.067 683.698 798.32 659.68 806.757 634.629L807.625 632.007C816.173 606.236 820.608 579.863 822.355 552.827C822.569 549.316 822.789 545.816 823.167 542.319C823.613 538.512 824.008 534.764 823.778 530.929C822.065 526.889 821.196 524.841 819.912 523.101C818.592 521.314 816.834 519.852 813.269 516.888L813.268 516.887L813.041 516.705C811.295 515.308 809.556 513.917 807.867 512.449C804.843 509.754 801.78 507.13 798.628 504.587L797.163 503.413C776.795 486.986 749.034 470.198 722.03 470.074L723.66 472.113L725.834 474.837C736.05 487.604 744.887 501.008 752.326 515.584C753.359 517.626 754.396 519.664 755.457 521.691C756.182 523.07 756.903 524.451 757.62 525.835L758.646 527.822L759.621 529.666C761.994 534.339 763.767 538.782 762.171 543.964L760.845 546.397L759.229 549.381C758.153 551.286 757.085 553.193 756.039 555.114C743.83 577.594 728.777 598.271 712.17 617.693C711.663 618.276 711.156 618.86 710.65 619.443L709.666 620.577C705.392 625.602 700.944 630.386 696.289 635.06L693.854 637.485C679.983 651.325 665.63 664.711 650.217 676.833L647.847 678.682C647.38 679.055 646.914 679.428 646.448 679.801L646.447 679.802C642.187 683.21 637.929 686.618 633.351 689.594C632.168 690.34 630.941 691.07 629.7 691.808L629.699 691.809L629.695 691.811L629.661 691.832L629.658 691.834L629.649 691.839C624.102 695.14 618.309 698.587 615.095 704.163C610.345 714.045 603.789 723.627 595.765 731.121L593.637 732.978C584.916 740.657 575.761 746.245 564.544 749.472C545.765 753.243 524.636 746.64 508.814 736.431C507.304 735.386 506.594 734.896 505.861 734.444C505.212 734.044 504.545 733.674 503.286 732.978L503.261 732.974L503.236 732.972L503.234 732.971L503.233 732.971L503.229 732.971L503.227 732.971L503.224 732.97L503.222 732.97L503.217 732.97L503.215 732.969L503.21 732.969L503.209 732.969L503.203 732.968L503.202 732.968L503.197 732.968L503.195 732.967L503.188 732.967L503.186 732.967L503.178 732.966L503.176 732.966L503.164 732.964L503.106 732.959L503.104 732.958L503.103 732.958C501.92 732.859 501.125 732.792 500.5 732.816V720.797C517.757 720.468 533.098 715.702 546.66 703.769C556.275 694.374 563.064 683.106 563.5 669.395C563.399 661.896 560.563 655.172 555.367 649.762C549.963 644.723 543.968 642.478 536.87 640.878L534.314 640.28C531.9 639.726 529.483 639.197 527.063 638.675L523.879 637.953C516.22 636.487 508.368 635.997 500.5 636.218V505.931C500.662 505.929 500.825 505.927 500.987 505.926L502.93 505.914C515.37 505.779 527.046 507.128 538.82 511.362L540.912 512.165C556.135 517.932 569.989 526.638 581.258 538.494L583.175 540.563C613.07 571.593 628.259 615.209 637.697 656.669L638.336 659.631H640.239C657.014 645.147 670.331 626.109 680.84 606.751C706.668 557.657 712.142 506.646 695.922 453.651L695.4 451.976L695.402 451.975C696.913 451.622 697.931 451.383 698.961 451.221C701.084 450.888 703.257 450.877 709.911 450.846L713.648 450.844C720.946 450.774 727.961 450.722 735.097 452.387L737.246 452.928C770.405 460.395 800.578 478.044 825.636 500.853C829.39 504.341 833.196 507.725 837.108 511.034C838.26 481.734 823.401 445.678 810.319 420.128C809.441 418.426 808.571 416.722 807.723 415.004C799.97 399.134 791.482 383.703 782.481 368.509C772.724 352.33 770.234 342.276 773.708 323.983C781.764 281.761 784.713 237.597 778.582 194.884L778.142 191.93C772.355 151.401 759.191 114.176 741.051 77.6239C738.935 77.4717 738.074 77.4097 737.279 77.6126C736.733 77.7521 736.219 78.0165 735.352 78.4627L733.349 79.6444L731.075 80.9685C729.493 81.9082 727.904 82.8376 726.31 83.7564C707.011 94.8762 687.503 106.686 670.851 121.62C668.839 123.49 666.819 125.291 664.673 127.006C659.254 131.281 654.255 135.861 649.356 140.657L649.749 141.445L629.777 161.448L629.588 160.881C623.983 166.986 618.598 173.272 613.371 179.785L612.267 181.187C611.447 182.228 610.626 183.269 609.805 184.309L605.644 189.429C604.465 190.874 603.312 192.34 602.196 193.835C601.741 194.915 601.524 195.429 601.272 195.926C601.044 196.374 600.788 196.808 600.301 197.633L600.294 197.645C597.716 199.059 595.706 199.535 592.779 199.803L589.892 199.788C586.861 199.804 584.423 199.641 581.518 198.754C571.433 195.145 560.812 192.587 550.364 190.262L548.164 189.787C542.824 188.597 537.487 187.75 532.133 187.162C526.634 187.144 521.136 187.13 515.637 187.121C513.165 187.117 510.692 187.112 508.22 187.107C505.647 187.099 503.073 187.09 500.5 187.084V164.134Z" fill="#2563EB"/>
<path d="M500.5 771.994C510.333 772.268 519.879 769.396 528.922 764.321C538.422 758.695 545.404 755.882 556.538 755.876C559.711 755.889 562.597 755.557 565.699 754.827L568.909 753.934C562.935 763.86 554.986 771.471 545.69 778.294C531.909 787.932 516.667 792.751 500.5 792.578V771.994Z" fill="#2563EB"/>
<path d="M500.5 926.209C502.212 925.906 503.514 925.281 505.22 924.447L509.659 921.923L512.202 920.451C538.331 905.399 563.059 888.379 586.337 869.211C587.501 868.25 588.666 867.292 589.833 866.334C596.423 861.059 602.723 855.596 608.871 849.814C611.127 847.691 613.379 845.579 615.712 843.54C627.562 833.474 638.198 821.801 648.382 810.074C650.19 807.976 652.025 805.921 653.91 803.89C660.881 796.401 667.426 788.615 673.853 780.653L675.428 778.7C694.465 755.278 711.677 729.72 725.199 702.63C725.303 702.287 725.44 701.906 725.623 701.402L725.623 701.4L727.786 696.82L728.984 694.34C729.23 693.814 729.47 693.291 729.707 692.773C730.636 690.748 731.532 688.795 732.649 686.971C733.588 685.324 734.676 683.968 736.262 682.523L736.296 682.492C736.296 683.484 736.296 683.96 736.228 684.425C736.166 684.854 736.046 685.275 735.817 686.082L734.406 690.334L733.621 692.673C732.732 695.369 731.811 698.027 730.821 700.659C730.13 702.603 729.429 704.544 728.721 706.483L727.736 709.164C711.502 753.451 687.321 796.238 655.693 831.447L655.388 831.778C653.659 833.653 651.933 835.524 650.274 837.462C645.827 842.657 641.097 847.524 636.257 852.351L634.889 853.713C623.626 864.958 612.089 875.738 599.924 886.001L598.392 887.291C574.492 907.427 548.766 925.407 521.494 940.656L518.741 942.181C518.374 942.386 518.006 942.592 517.637 942.798L517.606 942.816C512.745 945.535 507.791 948.308 502.461 949.935C501.749 950.013 501.103 950.019 500.5 949.962V926.209Z" fill="#2563EB"/>
<path d="M546.084 420.541C548.33 402.037 560.038 387.644 573.962 376.01C590.608 363.661 611.389 359.284 631.679 363.389C631.679 364.178 631.679 364.641 631.558 365.069C631.388 365.674 630.977 366.21 629.985 367.504C618.592 381.285 609.685 398.829 604.098 415.779C620.044 407.575 638.096 402.471 656.15 403.158L659.26 403.396C677.239 404.663 698.038 410.697 710.617 424.352C687.096 418.938 663.303 415.937 639.442 421.026C611.502 427.354 580.562 442.569 564.511 467.455C564.441 467.576 564.375 467.693 564.31 467.806L564.216 467.972C562.811 470.445 562.534 470.932 559.399 471.979C549.831 455.547 545.109 439.508 546.084 420.541Z" fill="#2563EB"/>
<path d="M728.753 102.883C714.092 106.128 700.739 119.251 690.1 129.707L690.097 129.71C689.21 130.582 688.342 131.435 687.494 132.262C686.021 133.697 684.533 135.115 683.04 136.529C676.293 143.057 670.538 150.106 664.966 157.638L663.535 159.567C648.34 180.194 644.528 185.368 644.072 190.824C643.919 192.65 644.143 194.509 644.441 196.989C646.102 204.682 650.945 211.064 655.812 217.053C656.996 218.547 658.179 220.041 659.36 221.537L661.204 223.861C673.27 239.174 684.123 254.932 693.855 271.825L695.095 273.971C695.497 274.859 695.98 275.727 696.566 276.611C698.482 280.142 700.242 283.727 701.915 287.372C702.575 288.899 703.262 290.42 703.96 291.947C704.866 289.225 704.864 288.321 704.264 286.118C704.047 285.043 703.72 283.96 703.369 282.794C703.25 282.403 703.129 282.001 703.009 281.588L702.358 279.312C701.752 277.224 701.129 275.146 700.489 273.078L700.155 271.944L700.146 271.976C692.932 248.922 683.591 227.007 671.897 205.847C671.507 205.014 671.1 204.185 670.673 203.36H670.51C669.926 202.324 669.337 201.289 668.742 200.256L667.819 198.598L666.661 196.679L665.917 194.787C667.031 192.333 668.15 190.3 669.603 188.06L670.806 186.137C679.037 173.142 688.741 161.267 699.204 150.018L701.211 147.852C706.993 141.828 713.441 136.877 720.128 131.919L720.643 133.506C722.086 137.9 723.617 142.244 725.261 146.567C731.2 162.244 736.177 178.295 739.67 194.7C740.106 196.723 740.572 198.737 741.04 200.752C746.602 225.607 748.318 251.299 748.659 276.707C763.661 248.754 759.202 203.645 753.415 173.831L752.89 171.024C744.213 125.2 742.355 115.388 736.954 108.276C735.482 106.338 733.748 104.601 731.54 102.39H728.687L728.687 102.393C728.711 102.573 728.733 102.735 728.753 102.883Z" fill="#2563EB"/>
<path d="M614.778 457.502C619.35 454.769 623.339 452.384 628.826 451.976C632.886 456.551 633.162 460.318 632.931 466.361C632.09 474.078 627.8 479.334 622.053 484.146C615.401 488.807 609.18 488.989 601.245 488.172C597.706 486.991 594.988 485.4 592.686 482.457C591.953 479.768 592.062 477.541 592.686 474.837C593.708 473.012 594.431 471.721 595.334 470.574C597.518 467.802 600.759 465.864 611.827 459.247L614.263 457.81L614.778 457.502Z" fill="#2563EB"/>
<path d="M502 772H499V792.5H502V772Z" fill="#2563EB"/>
<path d="M502.003 926.164H499.053V949.993H502.003V926.164Z" fill="#2563EB"/>
<path d="M502.003 720.779H499.053V732.807H502.003V720.779Z" fill="#2563EB"/>
<path d="M501.549 164.082H498.599V187.003H501.549V164.082Z" fill="#2563EB"/>
<path d="M502.003 506.088H499.053V636.128H502.003V506.088Z" fill="#2563EB"/>
</svg>
